<svg width="146" height="108" viewBox="0 0 146 108" fill="none" xmlns="http://www.w3.org/2000/svg">
<g filter="url(#filter0_i_538_12612)">
<path d="M31.6602 7.00733C35.1055 3.12918 39.7898 3.74641 42.7871 7.00733L44.6151 9.1237C45.248 9.81232 46.1639 10.1694 47.0959 10.0909L50.3457 9.1237C54.7754 8.1741 58.8008 11.4788 58.8008 16.6116V18.5452C58.8947 19.6007 59.8167 20.3163 60.7689 20.7813L63.7051 22.0081C67.9524 24.0823 69.0137 29.0042 65.9199 33.1351L65.041 34.2952C64.2526 35.361 64.4146 36.7598 65.1992 37.8284L66.0781 39.0589C69.2774 42.9964 67.4734 48.3985 62.9545 50.2858L60.4269 51.3414C59.4748 51.7391 59.1019 52.4216 58.9238 53.4378L58.7481 56.7425C58.1328 61.2776 54.1049 63.3261 50.8731 62.8685L47.0234 61.8401C46.0989 61.7092 44.9492 62.0159 44.334 62.9827L42.9453 64.8811C39.5 68.7659 34.8499 68.12 32.5039 65.8479L29.9422 62.7454C29.2714 62.0958 28.4258 61.5413 27.4137 61.9233L23.5391 62.9827C20.3403 63.4357 16.5737 60.9766 15.9708 57.8027L15.5235 53.2093C15.3419 52.2532 14.7114 51.4429 13.8293 51.0319L11.1114 50.0979C7.02418 48.1933 5.65523 43.5822 8.002 39.7318L9.53391 37.6133C10.1492 36.6038 10.12 35.3282 9.45902 34.3479L8.31644 32.7308C5.08213 28.1253 7.31832 22.9776 12.1111 21.4344L13.1681 21.094C14.3348 20.7184 15.4618 19.7495 15.5587 18.5276L15.7941 15.5616C16.1762 10.7472 20.5694 7.98457 25.1901 9.3893L26.6856 9.84392C28.127 10.4064 29.2563 9.92739 30.043 9.07048L31.6602 7.00733Z" fill="url(#paint0_linear_538_12612)"/>
<path d="M31.6602 7.00733C35.1055 3.12918 39.7898 3.74641 42.7871 7.00733L44.6151 9.1237C45.248 9.81232 46.1639 10.1694 47.0959 10.0909L50.3457 9.1237C54.7754 8.1741 58.8008 11.4788 58.8008 16.6116V18.5452C58.8947 19.6007 59.8167 20.3163 60.7689 20.7813L63.7051 22.0081C67.9524 24.0823 69.0137 29.0042 65.9199 33.1351L65.041 34.2952C64.2526 35.361 64.4146 36.7598 65.1992 37.8284L66.0781 39.0589C69.2774 42.9964 67.4734 48.3985 62.9545 50.2858L60.4269 51.3414C59.4748 51.7391 59.1019 52.4216 58.9238 53.4378L58.7481 56.7425C58.1328 61.2776 54.1049 63.3261 50.8731 62.8685L47.0234 61.8401C46.0989 61.7092 44.9492 62.0159 44.334 62.9827L42.9453 64.8811C39.5 68.7659 34.8499 68.12 32.5039 65.8479L29.9422 62.7454C29.2714 62.0958 28.4258 61.5413 27.4137 61.9233L23.5391 62.9827C20.3403 63.4357 16.5737 60.9766 15.9708 57.8027L15.5235 53.2093C15.3419 52.2532 14.7114 51.4429 13.8293 51.0319L11.1114 50.0979C7.02418 48.1933 5.65523 43.5822 8.002 39.7318L9.53391 37.6133C10.1492 36.6038 10.12 35.3282 9.45902 34.3479L8.31644 32.7308C5.08213 28.1253 7.31832 22.9776 12.1111 21.4344L13.1681 21.094C14.3348 20.7184 15.4618 19.7495 15.5587 18.5276L15.7941 15.5616C16.1762 10.7472 20.5694 7.98457 25.1901 9.3893L26.6856 9.84392C28.127 10.4064 29.2563 9.92739 30.043 9.07048L31.6602 7.00733Z" fill="url(#paint1_radial_538_12612)"/>
<path d="M31.6602 7.00733C35.1055 3.12918 39.7898 3.74641 42.7871 7.00733L44.6151 9.1237C45.248 9.81232 46.1639 10.1694 47.0959 10.0909L50.3457 9.1237C54.7754 8.1741 58.8008 11.4788 58.8008 16.6116V18.5452C58.8947 19.6007 59.8167 20.3163 60.7689 20.7813L63.7051 22.0081C67.9524 24.0823 69.0137 29.0042 65.9199 33.1351L65.041 34.2952C64.2526 35.361 64.4146 36.7598 65.1992 37.8284L66.0781 39.0589C69.2774 42.9964 67.4734 48.3985 62.9545 50.2858L60.4269 51.3414C59.4748 51.7391 59.1019 52.4216 58.9238 53.4378L58.7481 56.7425C58.1328 61.2776 54.1049 63.3261 50.8731 62.8685L47.0234 61.8401C46.0989 61.7092 44.9492 62.0159 44.334 62.9827L42.9453 64.8811C39.5 68.7659 34.8499 68.12 32.5039 65.8479L29.9422 62.7454C29.2714 62.0958 28.4258 61.5413 27.4137 61.9233L23.5391 62.9827C20.3403 63.4357 16.5737 60.9766 15.9708 57.8027L15.5235 53.2093C15.3419 52.2532 14.7114 51.4429 13.8293 51.0319L11.1114 50.0979C7.02418 48.1933 5.65523 43.5822 8.002 39.7318L9.53391 37.6133C10.1492 36.6038 10.12 35.3282 9.45902 34.3479L8.31644 32.7308C5.08213 28.1253 7.31832 22.9776 12.1111 21.4344L13.1681 21.094C14.3348 20.7184 15.4618 19.7495 15.5587 18.5276L15.7941 15.5616C16.1762 10.7472 20.5694 7.98457 25.1901 9.3893L26.6856 9.84392C28.127 10.4064 29.2563 9.92739 30.043 9.07048L31.6602 7.00733Z" fill="url(#paint2_radial_538_12612)"/>
<path d="M31.6602 7.00733C35.1055 3.12918 39.7898 3.74641 42.7871 7.00733L44.6151 9.1237C45.248 9.81232 46.1639 10.1694 47.0959 10.0909L50.3457 9.1237C54.7754 8.1741 58.8008 11.4788 58.8008 16.6116V18.5452C58.8947 19.6007 59.8167 20.3163 60.7689 20.7813L63.7051 22.0081C67.9524 24.0823 69.0137 29.0042 65.9199 33.1351L65.041 34.2952C64.2526 35.361 64.4146 36.7598 65.1992 37.8284L66.0781 39.0589C69.2774 42.9964 67.4734 48.3985 62.9545 50.2858L60.4269 51.3414C59.4748 51.7391 59.1019 52.4216 58.9238 53.4378L58.7481 56.7425C58.1328 61.2776 54.1049 63.3261 50.8731 62.8685L47.0234 61.8401C46.0989 61.7092 44.9492 62.0159 44.334 62.9827L42.9453 64.8811C39.5 68.7659 34.8499 68.12 32.5039 65.8479L29.9422 62.7454C29.2714 62.0958 28.4258 61.5413 27.4137 61.9233L23.5391 62.9827C20.3403 63.4357 16.5737 60.9766 15.9708 57.8027L15.5235 53.2093C15.3419 52.2532 14.7114 51.4429 13.8293 51.0319L11.1114 50.0979C7.02418 48.1933 5.65523 43.5822 8.002 39.7318L9.53391 37.6133C10.1492 36.6038 10.12 35.3282 9.45902 34.3479L8.31644 32.7308C5.08213 28.1253 7.31832 22.9776 12.1111 21.4344L13.1681 21.094C14.3348 20.7184 15.4618 19.7495 15.5587 18.5276L15.7941 15.5616C16.1762 10.7472 20.5694 7.98457 25.1901 9.3893L26.6856 9.84392C28.127 10.4064 29.2563 9.92739 30.043 9.07048L31.6602 7.00733Z" fill="url(#paint3_radial_538_12612)"/>
<path d="M31.6602 7.00733C35.1055 3.12918 39.7898 3.74641 42.7871 7.00733L44.6151 9.1237C45.248 9.81232 46.1639 10.1694 47.0959 10.0909L50.3457 9.1237C54.7754 8.1741 58.8008 11.4788 58.8008 16.6116V18.5452C58.8947 19.6007 59.8167 20.3163 60.7689 20.7813L63.7051 22.0081C67.9524 24.0823 69.0137 29.0042 65.9199 33.1351L65.041 34.2952C64.2526 35.361 64.4146 36.7598 65.1992 37.8284L66.0781 39.0589C69.2774 42.9964 67.4734 48.3985 62.9545 50.2858L60.4269 51.3414C59.4748 51.7391 59.1019 52.4216 58.9238 53.4378L58.7481 56.7425C58.1328 61.2776 54.1049 63.3261 50.8731 62.8685L47.0234 61.8401C46.0989 61.7092 44.9492 62.0159 44.334 62.9827L42.9453 64.8811C39.5 68.7659 34.8499 68.12 32.5039 65.8479L29.9422 62.7454C29.2714 62.0958 28.4258 61.5413 27.4137 61.9233L23.5391 62.9827C20.3403 63.4357 16.5737 60.9766 15.9708 57.8027L15.5235 53.2093C15.3419 52.2532 14.7114 51.4429 13.8293 51.0319L11.1114 50.0979C7.02418 48.1933 5.65523 43.5822 8.002 39.7318L9.53391 37.6133C10.1492 36.6038 10.12 35.3282 9.45902 34.3479L8.31644 32.7308C5.08213 28.1253 7.31832 22.9776 12.1111 21.4344L13.1681 21.094C14.3348 20.7184 15.4618 19.7495 15.5587 18.5276L15.7941 15.5616C16.1762 10.7472 20.5694 7.98457 25.1901 9.3893L26.6856 9.84392C28.127 10.4064 29.2563 9.92739 30.043 9.07048L31.6602 7.00733Z" fill="url(#paint4_radial_538_12612)"/>
<path d="M31.6602 7.00733C35.1055 3.12918 39.7898 3.74641 42.7871 7.00733L44.6151 9.1237C45.248 9.81232 46.1639 10.1694 47.0959 10.0909L50.3457 9.1237C54.7754 8.1741 58.8008 11.4788 58.8008 16.6116V18.5452C58.8947 19.6007 59.8167 20.3163 60.7689 20.7813L63.7051 22.0081C67.9524 24.0823 69.0137 29.0042 65.9199 33.1351L65.041 34.2952C64.2526 35.361 64.4146 36.7598 65.1992 37.8284L66.0781 39.0589C69.2774 42.9964 67.4734 48.3985 62.9545 50.2858L60.4269 51.3414C59.4748 51.7391 59.1019 52.4216 58.9238 53.4378L58.7481 56.7425C58.1328 61.2776 54.1049 63.3261 50.8731 62.8685L47.0234 61.8401C46.0989 61.7092 44.9492 62.0159 44.334 62.9827L42.9453 64.8811C39.5 68.7659 34.8499 68.12 32.5039 65.8479L29.9422 62.7454C29.2714 62.0958 28.4258 61.5413 27.4137 61.9233L23.5391 62.9827C20.3403 63.4357 16.5737 60.9766 15.9708 57.8027L15.5235 53.2093C15.3419 52.2532 14.7114 51.4429 13.8293 51.0319L11.1114 50.0979C7.02418 48.1933 5.65523 43.5822 8.002 39.7318L9.53391 37.6133C10.1492 36.6038 10.12 35.3282 9.45902 34.3479L8.31644 32.7308C5.08213 28.1253 7.31832 22.9776 12.1111 21.4344L13.1681 21.094C14.3348 20.7184 15.4618 19.7495 15.5587 18.5276L15.7941 15.5616C16.1762 10.7472 20.5694 7.98457 25.1901 9.3893L26.6856 9.84392C28.127 10.4064 29.2563 9.92739 30.043 9.07048L31.6602 7.00733Z" fill="url(#paint5_radial_538_12612)"/>
<path d="M31.6602 7.00733C35.1055 3.12918 39.7898 3.74641 42.7871 7.00733L44.6151 9.1237C45.248 9.81232 46.1639 10.1694 47.0959 10.0909L50.3457 9.1237C54.7754 8.1741 58.8008 11.4788 58.8008 16.6116V18.5452C58.8947 19.6007 59.8167 20.3163 60.7689 20.7813L63.7051 22.0081C67.9524 24.0823 69.0137 29.0042 65.9199 33.1351L65.041 34.2952C64.2526 35.361 64.4146 36.7598 65.1992 37.8284L66.0781 39.0589C69.2774 42.9964 67.4734 48.3985 62.9545 50.2858L60.4269 51.3414C59.4748 51.7391 59.1019 52.4216 58.9238 53.4378L58.7481 56.7425C58.1328 61.2776 54.1049 63.3261 50.8731 62.8685L47.0234 61.8401C46.0989 61.7092 44.9492 62.0159 44.334 62.9827L42.9453 64.8811C39.5 68.7659 34.8499 68.12 32.5039 65.8479L29.9422 62.7454C29.2714 62.0958 28.4258 61.5413 27.4137 61.9233L23.5391 62.9827C20.3403 63.4357 16.5737 60.9766 15.9708 57.8027L15.5235 53.2093C15.3419 52.2532 14.7114 51.4429 13.8293 51.0319L11.1114 50.0979C7.02418 48.1933 5.65523 43.5822 8.002 39.7318L9.53391 37.6133C10.1492 36.6038 10.12 35.3282 9.45902 34.3479L8.31644 32.7308C5.08213 28.1253 7.31832 22.9776 12.1111 21.4344L13.1681 21.094C14.3348 20.7184 15.4618 19.7495 15.5587 18.5276L15.7941 15.5616C16.1762 10.7472 20.5694 7.98457 25.1901 9.3893L26.6856 9.84392C28.127 10.4064 29.2563 9.92739 30.043 9.07048L31.6602 7.00733Z" fill="url(#paint6_radial_538_12612)"/>
<path d="M31.6602 7.00733C35.1055 3.12918 39.7898 3.74641 42.7871 7.00733L44.6151 9.1237C45.248 9.81232 46.1639 10.1694 47.0959 10.0909L50.3457 9.1237C54.7754 8.1741 58.8008 11.4788 58.8008 16.6116V18.5452C58.8947 19.6007 59.8167 20.3163 60.7689 20.7813L63.7051 22.0081C67.9524 24.0823 69.0137 29.0042 65.9199 33.1351L65.041 34.2952C64.2526 35.361 64.4146 36.7598 65.1992 37.8284L66.0781 39.0589C69.2774 42.9964 67.4734 48.3985 62.9545 50.2858L60.4269 51.3414C59.4748 51.7391 59.1019 52.4216 58.9238 53.4378L58.7481 56.7425C58.1328 61.2776 54.1049 63.3261 50.8731 62.8685L47.0234 61.8401C46.0989 61.7092 44.9492 62.0159 44.334 62.9827L42.9453 64.8811C39.5 68.7659 34.8499 68.12 32.5039 65.8479L29.9422 62.7454C29.2714 62.0958 28.4258 61.5413 27.4137 61.9233L23.5391 62.9827C20.3403 63.4357 16.5737 60.9766 15.9708 57.8027L15.5235 53.2093C15.3419 52.2532 14.7114 51.4429 13.8293 51.0319L11.1114 50.0979C7.02418 48.1933 5.65523 43.5822 8.002 39.7318L9.53391 37.6133C10.1492 36.6038 10.12 35.3282 9.45902 34.3479L8.31644 32.7308C5.08213 28.1253 7.31832 22.9776 12.1111 21.4344L13.1681 21.094C14.3348 20.7184 15.4618 19.7495 15.5587 18.5276L15.7941 15.5616C16.1762 10.7472 20.5694 7.98457 25.1901 9.3893L26.6856 9.84392C28.127 10.4064 29.2563 9.92739 30.043 9.07048L31.6602 7.00733Z" fill="url(#paint7_radial_538_12612)"/>
<path d="M31.6602 7.00733C35.1055 3.12918 39.7898 3.74641 42.7871 7.00733L44.6151 9.1237C45.248 9.81232 46.1639 10.1694 47.0959 10.0909L50.3457 9.1237C54.7754 8.1741 58.8008 11.4788 58.8008 16.6116V18.5452C58.8947 19.6007 59.8167 20.3163 60.7689 20.7813L63.7051 22.0081C67.9524 24.0823 69.0137 29.0042 65.9199 33.1351L65.041 34.2952C64.2526 35.361 64.4146 36.7598 65.1992 37.8284L66.0781 39.0589C69.2774 42.9964 67.4734 48.3985 62.9545 50.2858L60.4269 51.3414C59.4748 51.7391 59.1019 52.4216 58.9238 53.4378L58.7481 56.7425C58.1328 61.2776 54.1049 63.3261 50.8731 62.8685L47.0234 61.8401C46.0989 61.7092 44.9492 62.0159 44.334 62.9827L42.9453 64.8811C39.5 68.7659 34.8499 68.12 32.5039 65.8479L29.9422 62.7454C29.2714 62.0958 28.4258 61.5413 27.4137 61.9233L23.5391 62.9827C20.3403 63.4357 16.5737 60.9766 15.9708 57.8027L15.5235 53.2093C15.3419 52.2532 14.7114 51.4429 13.8293 51.0319L11.1114 50.0979C7.02418 48.1933 5.65523 43.5822 8.002 39.7318L9.53391 37.6133C10.1492 36.6038 10.12 35.3282 9.45902 34.3479L8.31644 32.7308C5.08213 28.1253 7.31832 22.9776 12.1111 21.4344L13.1681 21.094C14.3348 20.7184 15.4618 19.7495 15.5587 18.5276L15.7941 15.5616C16.1762 10.7472 20.5694 7.98457 25.1901 9.3893L26.6856 9.84392C28.127 10.4064 29.2563 9.92739 30.043 9.07048L31.6602 7.00733Z" fill="url(#paint8_radial_538_12612)"/>
<path d="M31.6602 7.00733C35.1055 3.12918 39.7898 3.74641 42.7871 7.00733L44.6151 9.1237C45.248 9.81232 46.1639 10.1694 47.0959 10.0909L50.3457 9.1237C54.7754 8.1741 58.8008 11.4788 58.8008 16.6116V18.5452C58.8947 19.6007 59.8167 20.3163 60.7689 20.7813L63.7051 22.0081C67.9524 24.0823 69.0137 29.0042 65.9199 33.1351L65.041 34.2952C64.2526 35.361 64.4146 36.7598 65.1992 37.8284L66.0781 39.0589C69.2774 42.9964 67.4734 48.3985 62.9545 50.2858L60.4269 51.3414C59.4748 51.7391 59.1019 52.4216 58.9238 53.4378L58.7481 56.7425C58.1328 61.2776 54.1049 63.3261 50.8731 62.8685L47.0234 61.8401C46.0989 61.7092 44.9492 62.0159 44.334 62.9827L42.9453 64.8811C39.5 68.7659 34.8499 68.12 32.5039 65.8479L29.9422 62.7454C29.2714 62.0958 28.4258 61.5413 27.4137 61.9233L23.5391 62.9827C20.3403 63.4357 16.5737 60.9766 15.9708 57.8027L15.5235 53.2093C15.3419 52.2532 14.7114 51.4429 13.8293 51.0319L11.1114 50.0979C7.02418 48.1933 5.65523 43.5822 8.002 39.7318L9.53391 37.6133C10.1492 36.6038 10.12 35.3282 9.45902 34.3479L8.31644 32.7308C5.08213 28.1253 7.31832 22.9776 12.1111 21.4344L13.1681 21.094C14.3348 20.7184 15.4618 19.7495 15.5587 18.5276L15.7941 15.5616C16.1762 10.7472 20.5694 7.98457 25.1901 9.3893L26.6856 9.84392C28.127 10.4064 29.2563 9.92739 30.043 9.07048L31.6602 7.00733Z" fill="url(#paint9_radial_538_12612)"/>
</g>
<g filter="url(#filter1_d_538_12612)">
<path d="M37.2488 60.1142C50.5984 60.1142 61.4204 49.2922 61.4204 35.9425C61.4204 22.5929 50.5984 11.7709 37.2488 11.7709C23.8992 11.7709 13.0771 22.5929 13.0771 35.9425C13.0771 49.2922 23.8992 60.1142 37.2488 60.1142Z" fill="url(#paint10_radial_538_12612)"/>
</g>
<g opacity="0.44" filter="url(#filter2_f_538_12612)">
<path d="M22.3761 43.9645C26.0543 43.9645 29.0361 40.9827 29.0361 37.3045C29.0361 33.6263 26.0543 30.6445 22.3761 30.6445C18.6978 30.6445 15.7161 33.6263 15.7161 37.3045C15.7161 40.9827 18.6978 43.9645 22.3761 43.9645Z" fill="url(#paint11_radial_538_12612)"/>
</g>
<g opacity="0.44" filter="url(#filter3_f_538_12612)">
<path d="M52.1214 43.9645C55.7996 43.9645 58.7814 40.9827 58.7814 37.3045C58.7814 33.6263 55.7996 30.6445 52.1214 30.6445C48.4432 30.6445 45.4614 33.6263 45.4614 37.3045C45.4614 40.9827 48.4432 43.9645 52.1214 43.9645Z" fill="url(#paint12_radial_538_12612)"/>
</g>
<g filter="url(#filter4_f_538_12612)">
<path fill-rule="evenodd" clip-rule="evenodd" d="M26.0768 40.7041C26.7358 40.0451 27.8043 40.0451 28.4633 40.7041C33.3168 45.5576 41.1808 45.5576 46.0343 40.7041C46.6933 40.0451 47.7618 40.0451 48.4208 40.7041C49.0798 41.3631 49.0798 42.4316 48.4208 43.0906C42.2493 49.2621 32.2483 49.2621 26.0768 43.0906C25.4178 42.4316 25.4178 41.3631 26.0768 40.7041Z" fill="#D6961E"/>
</g>
<g filter="url(#filter5_i_538_12612)">
<path fill-rule="evenodd" clip-rule="evenodd" d="M26.6505 39.8688C27.3095 39.2098 28.378 39.2098 29.037 39.8688C33.8905 44.7223 41.7545 44.7223 46.608 39.8688C47.267 39.2098 48.3355 39.2098 48.9945 39.8688C49.6535 40.5278 49.6535 41.5962 48.9945 42.2553C42.823 48.4268 32.822 48.4268 26.6505 42.2553C25.9915 41.5962 25.9915 40.5278 26.6505 39.8688Z" fill="url(#paint13_linear_538_12612)"/>
<path fill-rule="evenodd" clip-rule="evenodd" d="M26.6505 39.8688C27.3095 39.2098 28.378 39.2098 29.037 39.8688C33.8905 44.7223 41.7545 44.7223 46.608 39.8688C47.267 39.2098 48.3355 39.2098 48.9945 39.8688C49.6535 40.5278 49.6535 41.5962 48.9945 42.2553C42.823 48.4268 32.822 48.4268 26.6505 42.2553C25.9915 41.5962 25.9915 40.5278 26.6505 39.8688Z" fill="url(#paint14_linear_538_12612)"/>
</g>
<g filter="url(#filter6_i_538_12612)">
<path fill-rule="evenodd" clip-rule="evenodd" d="M26.1112 20.6544C23.0401 20.6544 20.5312 23.1457 20.5312 26.2344C20.5312 26.8557 20.0276 27.3594 19.4062 27.3594C18.7849 27.3594 18.2812 26.8557 18.2812 26.2344C18.2812 21.8981 21.8024 18.4044 26.1112 18.4044C26.7326 18.4044 27.2362 18.9081 27.2362 19.5294C27.2362 20.1507 26.7326 20.6544 26.1112 20.6544Z" fill="#43304A"/>
<path fill-rule="evenodd" clip-rule="evenodd" d="M26.1112 20.6544C23.0401 20.6544 20.5312 23.1457 20.5312 26.2344C20.5312 26.8557 20.0276 27.3594 19.4062 27.3594C18.7849 27.3594 18.2812 26.8557 18.2812 26.2344C18.2812 21.8981 21.8024 18.4044 26.1112 18.4044C26.7326 18.4044 27.2362 18.9081 27.2362 19.5294C27.2362 20.1507 26.7326 20.6544 26.1112 20.6544Z" fill="url(#paint15_radial_538_12612)"/>
</g>
<g filter="url(#filter7_f_538_12612)">
<path fill-rule="evenodd" clip-rule="evenodd" d="M48.063 20.0611C48.063 19.461 48.5494 18.9746 49.1495 18.9746C53.3107 18.9746 56.7113 22.3487 56.7113 26.5364C56.7113 27.1365 56.2249 27.6229 55.6248 27.6229C55.0248 27.6229 54.5384 27.1365 54.5384 26.5364C54.5384 23.5535 52.1154 21.1476 49.1495 21.1476C48.5494 21.1476 48.063 20.6611 48.063 20.0611Z" fill="#C28D03"/>
</g>
<g filter="url(#filter8_i_538_12612)">
<path fill-rule="evenodd" clip-rule="evenodd" d="M48.3411 19.5294C48.3411 18.9081 48.8447 18.4044 49.4661 18.4044C53.7749 18.4044 57.2961 21.8981 57.2961 26.2344C57.2961 26.8557 56.7924 27.3594 56.1711 27.3594C55.5497 27.3594 55.0461 26.8557 55.0461 26.2344C55.0461 23.1457 52.5372 20.6544 49.4661 20.6544C48.8447 20.6544 48.3411 20.1507 48.3411 19.5294Z" fill="#43304A"/>
</g>
<g filter="url(#filter9_f_538_12612)">
<path fill-rule="evenodd" clip-rule="evenodd" d="M27.8807 28.8896C26.6653 28.8896 25.6387 29.6286 25.2268 30.6784C24.9135 31.4767 24.0124 31.8699 23.214 31.5567C22.4157 31.2434 22.0225 30.3423 22.3358 29.5439C23.2075 27.3224 25.3694 25.7839 27.8807 25.7839C30.5149 25.7839 32.754 27.494 33.5379 29.8738C33.8062 30.6883 33.3634 31.5661 32.5488 31.8345C31.7343 32.1028 30.8565 31.66 30.5881 30.8454C30.2126 29.7054 29.1389 28.8896 27.8807 28.8896Z" fill="#C68D0F"/>
</g>
<path fill-rule="evenodd" clip-rule="evenodd" d="M28.1813 28.4846C26.8604 28.4846 25.7448 29.2877 25.2972 30.4285C24.9567 31.2961 23.9774 31.7234 23.1099 31.383C22.2423 31.0426 21.815 30.0633 22.1554 29.1957C23.1027 26.7815 25.4521 25.1096 28.1813 25.1096C31.044 25.1096 33.4772 26.968 34.3291 29.5541C34.6207 30.4393 34.1394 31.3933 33.2543 31.6849C32.3691 31.9765 31.4151 31.4953 31.1235 30.6101C30.7154 29.3712 29.5486 28.4846 28.1813 28.4846Z" fill="url(#paint16_linear_538_12612)"/>
<g filter="url(#filter10_f_538_12612)">
<path fill-rule="evenodd" clip-rule="evenodd" d="M47.3641 28.8896C46.1487 28.8896 45.1221 29.6286 44.7102 30.6784C44.3969 31.4767 43.4958 31.8699 42.6974 31.5567C41.8991 31.2434 41.5059 30.3423 41.8192 29.5439C42.6909 27.3224 44.8528 25.7839 47.3641 25.7839C49.9983 25.7839 52.2374 27.494 53.0213 29.8738C53.2896 30.6883 52.8468 31.5661 52.0322 31.8345C51.2177 32.1028 50.3399 31.66 50.0715 30.8454C49.696 29.7054 48.6223 28.8896 47.3641 28.8896Z" fill="#C68D0F"/>
</g>
<g filter="url(#filter11_i_538_12612)">
<path fill-rule="evenodd" clip-rule="evenodd" d="M47.5763 28.4846C46.2554 28.4846 45.1398 29.2877 44.6922 30.4285C44.3517 31.2961 43.3725 31.7234 42.5049 31.383C41.6373 31.0426 41.21 30.0633 41.5504 29.1957C42.4978 26.7815 44.8472 25.1096 47.5763 25.1096C50.439 25.1096 52.8722 26.968 53.7241 29.5541C54.0157 30.4393 53.5345 31.3933 52.6493 31.6849C51.7641 31.9765 50.8101 31.4953 50.5185 30.6101C50.1104 29.3712 48.9436 28.4846 47.5763 28.4846Z" fill="#422E51"/>
</g>
<g filter="url(#filter12_f_538_12612)">
<path d="M27.9221 41.1154C31.1633 44.1497 39.6455 48.3977 47.6451 41.1154" stroke="url(#paint17_linear_538_12612)" stroke-width="0.6" stroke-linecap="round"/>
<path d="M27.9221 41.1154C31.1633 44.1497 39.6455 48.3977 47.6451 41.1154" stroke="url(#paint18_linear_538_12612)" stroke-width="0.6" stroke-linecap="round"/>
</g>
<g filter="url(#filter13_f_538_12612)">
<path d="M49.6375 19.2432C51.6296 19.2666 55.8953 20.7971 56.3171 26.1689" stroke="url(#paint19_linear_538_12612)" stroke-width="0.4" stroke-linecap="round"/>
<path d="M49.6375 19.2432C51.6296 19.2666 55.8953 20.7971 56.3171 26.1689" stroke="url(#paint20_linear_538_12612)" stroke-width="0.4" stroke-linecap="round"/>
</g>
<g filter="url(#filter14_f_538_12612)">
<path d="M19.5085 26.0635C19.5906 24.5049 20.5 21.5213 23.3406 20.2275" stroke="url(#paint21_linear_538_12612)" stroke-width="0.4" stroke-linecap="round"/>
</g>
<g filter="url(#filter15_f_538_12612)">
<path d="M33.0326 30.3419C32.7818 28.8373 31.2103 25.9618 26.9304 26.4967" stroke="url(#paint22_linear_538_12612)" stroke-width="0.5" stroke-linecap="round"/>
</g>
<g opacity="0.5" filter="url(#filter16_f_538_12612)">
<path d="M43.3594 29.5038C43.773 28.5249 45.2043 26.5917 47.6201 26.6909C50.0359 26.7902 51.9497 28.4559 52.4599 29.5038" stroke="url(#paint23_linear_538_12612)" stroke-width="0.5" stroke-linecap="round"/>
</g>
<g filter="url(#filter17_i_538_12612)">
<circle cx="108.871" cy="72.224" r="31.4989" fill="url(#paint24_radial_538_12612)"/>
<circle cx="108.871" cy="72.224" r="31.4989" fill="url(#paint25_radial_538_12612)"/>
<circle cx="108.871" cy="72.224" r="31.4989" fill="url(#paint26_radial_538_12612)"/>
</g>
<path opacity="0.44" d="M93.7181 78.8715C97.3963 78.8715 100.378 75.8897 100.378 72.2115C100.378 68.5333 97.3963 65.5515 93.7181 65.5515C90.0399 65.5515 87.0581 68.5333 87.0581 72.2115C87.0581 75.8897 90.0399 78.8715 93.7181 78.8715Z" fill="url(#paint27_radial_538_12612)"/>
<path opacity="0.44" d="M123.463 78.8715C127.141 78.8715 130.123 75.8897 130.123 72.2115C130.123 68.5333 127.141 65.5515 123.463 65.5515C119.785 65.5515 116.803 68.5333 116.803 72.2115C116.803 75.8897 119.785 78.8715 123.463 78.8715Z" fill="url(#paint28_radial_538_12612)"/>
<g filter="url(#filter18_f_538_12612)">
<path d="M107.73 54.3015C110.833 54.3015 113.348 51.7863 113.348 48.6835C113.348 45.5808 110.833 43.0656 107.73 43.0656C104.627 43.0656 102.112 45.5808 102.112 48.6835C102.112 51.7863 104.627 54.3015 107.73 54.3015Z" stroke="url(#paint29_linear_538_12612)" stroke-width="0.25"/>
</g>
<path d="M107.73 54.3015C110.833 54.3015 113.348 51.7863 113.348 48.6835C113.348 45.5808 110.833 43.0656 107.73 43.0656C104.627 43.0656 102.112 45.5808 102.112 48.6835C102.112 51.7863 104.627 54.3015 107.73 54.3015Z" fill="url(#paint30_linear_538_12612)"/>
<path d="M107.73 54.3015C110.833 54.3015 113.348 51.7863 113.348 48.6835C113.348 45.5808 110.833 43.0656 107.73 43.0656C104.627 43.0656 102.112 45.5808 102.112 48.6835C102.112 51.7863 104.627 54.3015 107.73 54.3015Z" fill="url(#paint31_radial_538_12612)"/>
<path d="M107.73 54.3015C110.833 54.3015 113.348 51.7863 113.348 48.6835C113.348 45.5808 110.833 43.0656 107.73 43.0656C104.627 43.0656 102.112 45.5808 102.112 48.6835C102.112 51.7863 104.627 54.3015 107.73 54.3015Z" fill="url(#paint32_radial_538_12612)"/>
<g filter="url(#filter19_f_538_12612)">
<path d="M77.8257 70.3271C78.5014 70.1473 79.2114 70.0515 79.9437 70.0515C84.4808 70.0515 88.1589 73.7296 88.1589 78.2667C88.1589 82.3302 85.2086 85.7047 81.3332 86.3648" stroke="url(#paint33_linear_538_12612)" stroke-width="0.2"/>
</g>
<path d="M77.4214 70.446C78.2162 70.1899 79.0639 70.0515 79.9438 70.0515C84.4809 70.0515 88.159 73.7296 88.159 78.2667C88.159 82.5297 84.9119 86.0344 80.756 86.4422C78.5917 82.1709 77.3721 77.3399 77.3721 72.2241C77.3721 71.6274 77.3887 71.0345 77.4214 70.446Z" fill="url(#paint34_radial_538_12612)"/>
<path d="M77.4214 70.446C78.2162 70.1899 79.0639 70.0515 79.9438 70.0515C84.4809 70.0515 88.159 73.7296 88.159 78.2667C88.159 82.5297 84.9119 86.0344 80.756 86.4422C78.5917 82.1709 77.3721 77.3399 77.3721 72.2241C77.3721 71.6274 77.3887 71.0345 77.4214 70.446Z" fill="url(#paint35_radial_538_12612)"/>
<path d="M77.4214 70.446C78.2162 70.1899 79.0639 70.0515 79.9438 70.0515C84.4809 70.0515 88.159 73.7296 88.159 78.2667C88.159 82.5297 84.9119 86.0344 80.756 86.4422C78.5917 82.1709 77.3721 77.3399 77.3721 72.2241C77.3721 71.6274 77.3887 71.0345 77.4214 70.446Z" fill="url(#paint36_radial_538_12612)"/>
<path d="M77.4214 70.446C78.2162 70.1899 79.0639 70.0515 79.9438 70.0515C84.4809 70.0515 88.159 73.7296 88.159 78.2667C88.159 82.5297 84.9119 86.0344 80.756 86.4422C78.5917 82.1709 77.3721 77.3399 77.3721 72.2241C77.3721 71.6274 77.3887 71.0345 77.4214 70.446Z" fill="url(#paint37_radial_538_12612)"/>
<path d="M77.4214 70.446C78.2162 70.1899 79.0639 70.0515 79.9438 70.0515C84.4809 70.0515 88.159 73.7296 88.159 78.2667C88.159 82.5297 84.9119 86.0344 80.756 86.4422C78.5917 82.1709 77.3721 77.3399 77.3721 72.2241C77.3721 71.6274 77.3887 71.0345 77.4214 70.446Z" fill="url(#paint38_radial_538_12612)"/>
<g filter="url(#filter20_f_538_12612)">
<path d="M106.148 87.185C108.512 89.0356 109.156 92.1602 107.587 94.164C106.018 96.1677 102.83 96.2919 100.467 94.4413C98.1033 92.5908 97.4591 89.4662 99.0279 87.4624C100.597 85.4586 103.785 85.3344 106.148 87.185Z" stroke="url(#paint39_linear_538_12612)" stroke-width="0.2"/>
</g>
<path d="M106.148 87.185C108.512 89.0356 109.156 92.1602 107.587 94.164C106.018 96.1677 102.83 96.2919 100.467 94.4413C98.1033 92.5908 97.4591 89.4662 99.0279 87.4624C100.597 85.4586 103.785 85.3344 106.148 87.185Z" fill="url(#paint40_linear_538_12612)"/>
<path d="M106.148 87.185C108.512 89.0356 109.156 92.1602 107.587 94.164C106.018 96.1677 102.83 96.2919 100.467 94.4413C98.1033 92.5908 97.4591 89.4662 99.0279 87.4624C100.597 85.4586 103.785 85.3344 106.148 87.185Z" fill="url(#paint41_radial_538_12612)"/>
<path d="M106.148 87.185C108.512 89.0356 109.156 92.1602 107.587 94.164C106.018 96.1677 102.83 96.2919 100.467 94.4413C98.1033 92.5908 97.4591 89.4662 99.0279 87.4624C100.597 85.4586 103.785 85.3344 106.148 87.185Z" fill="url(#paint42_radial_538_12612)"/>
<path d="M131.726 93.9001C127.946 97.8839 123.136 100.88 117.722 102.462C117.079 101.291 116.714 99.9467 116.714 98.5167C116.714 93.9796 120.392 90.3015 124.929 90.3015C127.755 90.3015 130.247 91.728 131.726 93.9001Z" fill="#6B438B"/>
<g filter="url(#filter21_f_538_12612)">
<path d="M139.777 74.6429C139.448 74.5829 139.109 74.5515 138.762 74.5515C135.66 74.5515 133.144 77.0668 133.144 80.1695C133.144 82.6436 134.744 84.7442 136.965 85.4938" stroke="url(#paint43_linear_538_12612)" stroke-width="0.3"/>
</g>
<path d="M140.269 74.756C139.963 78.6144 138.96 82.2769 137.388 85.6183C134.95 85.0053 133.144 82.7982 133.144 80.1695C133.144 77.0668 135.66 74.5515 138.762 74.5515C139.284 74.5515 139.79 74.6227 140.269 74.756Z" fill="url(#paint44_radial_538_12612)"/>
<path d="M140.269 74.756C139.963 78.6144 138.96 82.2769 137.388 85.6183C134.95 85.0053 133.144 82.7982 133.144 80.1695C133.144 77.0668 135.66 74.5515 138.762 74.5515C139.284 74.5515 139.79 74.6227 140.269 74.756Z" fill="url(#paint45_radial_538_12612)"/>
<path d="M140.269 74.756C139.963 78.6144 138.96 82.2769 137.388 85.6183C134.95 85.0053 133.144 82.7982 133.144 80.1695C133.144 77.0668 135.66 74.5515 138.762 74.5515C139.284 74.5515 139.79 74.6227 140.269 74.756Z" fill="url(#paint46_radial_538_12612)"/>
<path d="M140.269 74.756C139.963 78.6144 138.96 82.2769 137.388 85.6183C134.95 85.0053 133.144 82.7982 133.144 80.1695C133.144 77.0668 135.66 74.5515 138.762 74.5515C139.284 74.5515 139.79 74.6227 140.269 74.756Z" fill="url(#paint47_radial_538_12612)"/>
<path d="M140.269 74.756C139.963 78.6144 138.96 82.2769 137.388 85.6183C134.95 85.0053 133.144 82.7982 133.144 80.1695C133.144 77.0668 135.66 74.5515 138.762 74.5515C139.284 74.5515 139.79 74.6227 140.269 74.756Z" fill="url(#paint48_radial_538_12612)"/>
<g filter="url(#filter22_d_538_12612)">
<path fill-rule="evenodd" clip-rule="evenodd" d="M96.8793 54.3916C93.8082 54.3916 91.2993 56.8829 91.2993 59.9716C91.2993 60.5929 90.7956 61.0966 90.1743 61.0966C89.553 61.0966 89.0493 60.5929 89.0493 59.9716C89.0493 55.6353 92.5705 52.1416 96.8793 52.1416C97.5006 52.1416 98.0043 52.6453 98.0043 53.2666C98.0043 53.8879 97.5006 54.3916 96.8793 54.3916Z" fill="url(#paint49_linear_538_12612)"/>
<path fill-rule="evenodd" clip-rule="evenodd" d="M96.8793 54.3916C93.8082 54.3916 91.2993 56.8829 91.2993 59.9716C91.2993 60.5929 90.7956 61.0966 90.1743 61.0966C89.553 61.0966 89.0493 60.5929 89.0493 59.9716C89.0493 55.6353 92.5705 52.1416 96.8793 52.1416C97.5006 52.1416 98.0043 52.6453 98.0043 53.2666C98.0043 53.8879 97.5006 54.3916 96.8793 54.3916Z" fill="url(#paint50_radial_538_12612)"/>
</g>
<g filter="url(#filter23_d_538_12612)">
<path fill-rule="evenodd" clip-rule="evenodd" d="M119.11 53.2666C119.11 52.6453 119.613 52.1416 120.235 52.1416C124.543 52.1416 128.065 55.6353 128.065 59.9716C128.065 60.5929 127.561 61.0966 126.94 61.0966C126.318 61.0966 125.815 60.5929 125.815 59.9716C125.815 56.8829 123.306 54.3916 120.235 54.3916C119.613 54.3916 119.11 53.8879 119.11 53.2666Z" fill="url(#paint51_linear_538_12612)"/>
<path fill-rule="evenodd" clip-rule="evenodd" d="M119.11 53.2666C119.11 52.6453 119.613 52.1416 120.235 52.1416C124.543 52.1416 128.065 55.6353 128.065 59.9716C128.065 60.5929 127.561 61.0966 126.94 61.0966C126.318 61.0966 125.815 60.5929 125.815 59.9716C125.815 56.8829 123.306 54.3916 120.235 54.3916C119.613 54.3916 119.11 53.8879 119.11 53.2666Z" fill="url(#paint52_radial_538_12612)"/>
</g>
<g filter="url(#filter24_d_538_12612)">
<path fill-rule="evenodd" clip-rule="evenodd" d="M98.9493 62.2216C97.6285 62.2216 96.5129 63.0247 96.0652 64.1655C95.7248 65.0331 94.7455 65.4604 93.8779 65.1199C93.0103 64.7795 92.583 63.8002 92.9235 62.9326C93.8708 60.5184 96.2202 58.8466 98.9493 58.8466C101.812 58.8466 104.245 60.705 105.097 63.2911C105.389 64.1763 104.908 65.1302 104.022 65.4218C103.137 65.7134 102.183 65.2322 101.892 64.347C101.483 63.1082 100.317 62.2216 98.9493 62.2216Z" fill="url(#paint53_linear_538_12612)"/>
<path fill-rule="evenodd" clip-rule="evenodd" d="M98.9493 62.2216C97.6285 62.2216 96.5129 63.0247 96.0652 64.1655C95.7248 65.0331 94.7455 65.4604 93.8779 65.1199C93.0103 64.7795 92.583 63.8002 92.9235 62.9326C93.8708 60.5184 96.2202 58.8466 98.9493 58.8466C101.812 58.8466 104.245 60.705 105.097 63.2911C105.389 64.1763 104.908 65.1302 104.022 65.4218C103.137 65.7134 102.183 65.2322 101.892 64.347C101.483 63.1082 100.317 62.2216 98.9493 62.2216Z" fill="url(#paint54_radial_538_12612)"/>
</g>
<g filter="url(#filter25_d_538_12612)">
<path fill-rule="evenodd" clip-rule="evenodd" d="M118.344 62.2216C117.023 62.2216 115.908 63.0247 115.46 64.1655C115.12 65.0331 114.141 65.4604 113.273 65.1199C112.405 64.7795 111.978 63.8002 112.318 62.9326C113.266 60.5184 115.615 58.8466 118.344 58.8466C121.207 58.8466 123.64 60.705 124.492 63.2911C124.784 64.1763 124.303 65.1302 123.417 65.4218C122.532 65.7134 121.578 65.2322 121.287 64.347C120.878 63.1082 119.712 62.2216 118.344 62.2216Z" fill="url(#paint55_linear_538_12612)"/>
<path fill-rule="evenodd" clip-rule="evenodd" d="M118.344 62.2216C117.023 62.2216 115.908 63.0247 115.46 64.1655C115.12 65.0331 114.141 65.4604 113.273 65.1199C112.405 64.7795 111.978 63.8002 112.318 62.9326C113.266 60.5184 115.615 58.8466 118.344 58.8466C121.207 58.8466 123.64 60.705 124.492 63.2911C124.784 64.1763 124.303 65.1302 123.417 65.4218C122.532 65.7134 121.578 65.2322 121.287 64.347C120.878 63.1082 119.712 62.2216 118.344 62.2216Z" fill="url(#paint56_radial_538_12612)"/>
</g>
<g filter="url(#filter26_di_538_12612)">
<path fill-rule="evenodd" clip-rule="evenodd" d="M97.4186 73.6057C98.0776 72.9467 99.146 72.9467 99.8051 73.6057C104.659 78.4592 112.523 78.4592 117.376 73.6057C118.035 72.9467 119.104 72.9467 119.763 73.6057C120.422 74.2647 120.422 75.3332 119.763 75.9922C113.591 82.1637 103.59 82.1637 97.4186 75.9922C96.7596 75.3332 96.7596 74.2647 97.4186 73.6057Z" fill="#352046"/>
<path fill-rule="evenodd" clip-rule="evenodd" d="M97.4186 73.6057C98.0776 72.9467 99.146 72.9467 99.8051 73.6057C104.659 78.4592 112.523 78.4592 117.376 73.6057C118.035 72.9467 119.104 72.9467 119.763 73.6057C120.422 74.2647 120.422 75.3332 119.763 75.9922C113.591 82.1637 103.59 82.1637 97.4186 75.9922C96.7596 75.3332 96.7596 74.2647 97.4186 73.6057Z" fill="url(#paint57_linear_538_12612)"/>
<path fill-rule="evenodd" clip-rule="evenodd" d="M97.4186 73.6057C98.0776 72.9467 99.146 72.9467 99.8051 73.6057C104.659 78.4592 112.523 78.4592 117.376 73.6057C118.035 72.9467 119.104 72.9467 119.763 73.6057C120.422 74.2647 120.422 75.3332 119.763 75.9922C113.591 82.1637 103.59 82.1637 97.4186 75.9922C96.7596 75.3332 96.7596 74.2647 97.4186 73.6057Z" fill="url(#paint58_linear_538_12612)"/>
</g>
<g filter="url(#filter27_f_538_12612)">
<path d="M98.4658 74.6921C101.864 77.8796 110.7 82.3421 118.856 74.6921" stroke="url(#paint59_linear_538_12612)" stroke-width="0.5" stroke-linecap="round"/>
</g>
<g filter="url(#filter28_f_538_12612)">
<path d="M94.2471 53.8972C93.1338 54.4832 90.5732 56.2527 90.3096 59.821" stroke="url(#paint60_linear_538_12612)" stroke-width="0.5" stroke-linecap="round"/>
</g>
<g filter="url(#filter29_f_538_12612)">
<path d="M120.263 53.1062C122.161 52.9421 126.499 53.7179 127.118 58.8366" stroke="url(#paint61_linear_538_12612)" stroke-width="0.5" stroke-linecap="round"/>
</g>
<g filter="url(#filter30_f_538_12612)">
<path d="M94.3174 63.6531C94.5518 62.4578 96.483 60.1234 99.5205 60.3484C102.558 60.5734 103.763 62.5047 104.091 63.6531" stroke="url(#paint62_linear_538_12612)" stroke-width="0.6" stroke-linecap="round"/>
</g>
<g filter="url(#filter31_f_538_12612)">
<path d="M113.348 63.6531C113.583 62.4578 115.514 60.1234 118.551 60.3484C121.589 60.5734 122.793 62.5047 123.122 63.6531" stroke="url(#paint63_linear_538_12612)" stroke-width="0.6" stroke-linecap="round"/>
</g>
<defs>
<filter id="filter0_i_538_12612" x="6.79639" y="4.0752" width="61.1548" height="63.5997" filterUnits="userSpaceOnUse" color-interpolation-filters="sRGB">
<feFlood flood-opacity="0" result="BackgroundImageFix"/>
<feBlend mode="normal" in="SourceGraphic" in2="BackgroundImageFix" result="shape"/>
<feColorMatrix in="SourceAlpha" type="matrix" values="0 0 0 0 0 0 0 0 0 0 0 0 0 0 0 0 0 0 127 0" result="hardAlpha"/>
<feOffset dx="0.25" dy="-0.25"/>
<feGaussianBlur stdDeviation="0.25"/>
<feComposite in2="hardAlpha" operator="arithmetic" k2="-1" k3="1"/>
<feColorMatrix type="matrix" values="0 0 0 0 0.85098 0 0 0 0 0.447059 0 0 0 0 0.196078 0 0 0 1 0"/>
<feBlend mode="normal" in2="shape" result="effect1_innerShadow_538_12612"/>
</filter>
<filter id="filter1_d_538_12612" x="12.4771" y="11.7709" width="48.9433" height="48.9433" filterUnits="userSpaceOnUse" color-interpolation-filters="sRGB">
<feFlood flood-opacity="0" result="BackgroundImageFix"/>
<feColorMatrix in="SourceAlpha" type="matrix" values="0 0 0 0 0 0 0 0 0 0 0 0 0 0 0 0 0 0 127 0" result="hardAlpha"/>
<feOffset dx="-0.3" dy="0.3"/>
<feGaussianBlur stdDeviation="0.15"/>
<feComposite in2="hardAlpha" operator="out"/>
<feColorMatrix type="matrix" values="0 0 0 0 0.921569 0 0 0 0 0.47451 0 0 0 0 0.133333 0 0 0 1 0"/>
<feBlend mode="normal" in2="BackgroundImageFix" result="effect1_dropShadow_538_12612"/>
<feBlend mode="normal" in="SourceGraphic" in2="effect1_dropShadow_538_12612" result="shape"/>
</filter>
<filter id="filter2_f_538_12612" x="15.2161" y="30.1445" width="14.3201" height="14.3199" filterUnits="userSpaceOnUse" color-interpolation-filters="sRGB">
<feFlood flood-opacity="0" result="BackgroundImageFix"/>
<feBlend mode="normal" in="SourceGraphic" in2="BackgroundImageFix" result="shape"/>
<feGaussianBlur stdDeviation="0.25" result="effect1_foregroundBlur_538_12612"/>
</filter>
<filter id="filter3_f_538_12612" x="44.9614" y="30.1445" width="14.3201" height="14.3199" filterUnits="userSpaceOnUse" color-interpolation-filters="sRGB">
<feFlood flood-opacity="0" result="BackgroundImageFix"/>
<feBlend mode="normal" in="SourceGraphic" in2="BackgroundImageFix" result="shape"/>
<feGaussianBlur stdDeviation="0.25" result="effect1_foregroundBlur_538_12612"/>
</filter>
<filter id="filter4_f_538_12612" x="25.0825" y="39.7098" width="24.3325" height="8.5094" filterUnits="userSpaceOnUse" color-interpolation-filters="sRGB">
<feFlood flood-opacity="0" result="BackgroundImageFix"/>
<feBlend mode="normal" in="SourceGraphic" in2="BackgroundImageFix" result="shape"/>
<feGaussianBlur stdDeviation="0.25" result="effect1_foregroundBlur_538_12612"/>
</filter>
<filter id="filter5_i_538_12612" x="26.1562" y="39.1245" width="23.5825" height="7.7594" filterUnits="userSpaceOnUse" color-interpolation-filters="sRGB">
<feFlood flood-opacity="0" result="BackgroundImageFix"/>
<feBlend mode="normal" in="SourceGraphic" in2="BackgroundImageFix" result="shape"/>
<feColorMatrix in="SourceAlpha" type="matrix" values="0 0 0 0 0 0 0 0 0 0 0 0 0 0 0 0 0 0 127 0" result="hardAlpha"/>
<feOffset dx="0.25" dy="-0.25"/>
<feGaussianBlur stdDeviation="0.5"/>
<feComposite in2="hardAlpha" operator="arithmetic" k2="-1" k3="1"/>
<feColorMatrix type="matrix" values="0 0 0 0 0.203922 0 0 0 0 0.168627 0 0 0 0 0.180392 0 0 0 1 0"/>
<feBlend mode="normal" in2="shape" result="effect1_innerShadow_538_12612"/>
</filter>
<filter id="filter6_i_538_12612" x="18.2812" y="18.1544" width="9.20508" height="9.20496" filterUnits="userSpaceOnUse" color-interpolation-filters="sRGB">
<feFlood flood-opacity="0" result="BackgroundImageFix"/>
<feBlend mode="normal" in="SourceGraphic" in2="BackgroundImageFix" result="shape"/>
<feColorMatrix in="SourceAlpha" type="matrix" values="0 0 0 0 0 0 0 0 0 0 0 0 0 0 0 0 0 0 127 0" result="hardAlpha"/>
<feOffset dx="0.25" dy="-0.25"/>
<feGaussianBlur stdDeviation="0.25"/>
<feComposite in2="hardAlpha" operator="arithmetic" k2="-1" k3="1"/>
<feColorMatrix type="matrix" values="0 0 0 0 0.239216 0 0 0 0 0.156863 0 0 0 0 0.172549 0 0 0 1 0"/>
<feBlend mode="normal" in2="shape" result="effect1_innerShadow_538_12612"/>
</filter>
<filter id="filter7_f_538_12612" x="47.563" y="18.4746" width="9.64819" height="9.64832" filterUnits="userSpaceOnUse" color-interpolation-filters="sRGB">
<feFlood flood-opacity="0" result="BackgroundImageFix"/>
<feBlend mode="normal" in="SourceGraphic" in2="BackgroundImageFix" result="shape"/>
<feGaussianBlur stdDeviation="0.25" result="effect1_foregroundBlur_538_12612"/>
</filter>
<filter id="filter8_i_538_12612" x="48.3411" y="18.2544" width="9.10508" height="9.10496" filterUnits="userSpaceOnUse" color-interpolation-filters="sRGB">
<feFlood flood-opacity="0" result="BackgroundImageFix"/>
<feBlend mode="normal" in="SourceGraphic" in2="BackgroundImageFix" result="shape"/>
<feColorMatrix in="SourceAlpha" type="matrix" values="0 0 0 0 0 0 0 0 0 0 0 0 0 0 0 0 0 0 127 0" result="hardAlpha"/>
<feOffset dx="0.15" dy="-0.15"/>
<feGaussianBlur stdDeviation="0.25"/>
<feComposite in2="hardAlpha" operator="arithmetic" k2="-1" k3="1"/>
<feColorMatrix type="matrix" values="0 0 0 0 0.270588 0 0 0 0 0.196078 0 0 0 0 0.192157 0 0 0 1 0"/>
<feBlend mode="normal" in2="shape" result="effect1_innerShadow_538_12612"/>
</filter>
<filter id="filter9_f_538_12612" x="21.828" y="25.3839" width="12.1882" height="6.92891" filterUnits="userSpaceOnUse" color-interpolation-filters="sRGB">
<feFlood flood-opacity="0" result="BackgroundImageFix"/>
<feBlend mode="normal" in="SourceGraphic" in2="BackgroundImageFix" result="shape"/>
<feGaussianBlur stdDeviation="0.2" result="effect1_foregroundBlur_538_12612"/>
</filter>
<filter id="filter10_f_538_12612" x="41.3114" y="25.3839" width="12.1882" height="6.92891" filterUnits="userSpaceOnUse" color-interpolation-filters="sRGB">
<feFlood flood-opacity="0" result="BackgroundImageFix"/>
<feBlend mode="normal" in="SourceGraphic" in2="BackgroundImageFix" result="shape"/>
<feGaussianBlur stdDeviation="0.2" result="effect1_foregroundBlur_538_12612"/>
</filter>
<filter id="filter11_i_538_12612" x="41.4333" y="24.9596" width="12.776" height="6.8104" filterUnits="userSpaceOnUse" color-interpolation-filters="sRGB">
<feFlood flood-opacity="0" result="BackgroundImageFix"/>
<feBlend mode="normal" in="SourceGraphic" in2="BackgroundImageFix" result="shape"/>
<feColorMatrix in="SourceAlpha" type="matrix" values="0 0 0 0 0 0 0 0 0 0 0 0 0 0 0 0 0 0 127 0" result="hardAlpha"/>
<feOffset dx="0.4" dy="-0.15"/>
<feGaussianBlur stdDeviation="0.25"/>
<feComposite in2="hardAlpha" operator="arithmetic" k2="-1" k3="1"/>
<feColorMatrix type="matrix" values="0 0 0 0 0.298039 0 0 0 0 0.196078 0 0 0 0 0.235294 0 0 0 1 0"/>
<feBlend mode="normal" in2="shape" result="effect1_innerShadow_538_12612"/>
</filter>
<filter id="filter12_f_538_12612" x="27.0221" y="40.2153" width="21.523" height="5.82097" filterUnits="userSpaceOnUse" color-interpolation-filters="sRGB">
<feFlood flood-opacity="0" result="BackgroundImageFix"/>
<feBlend mode="normal" in="SourceGraphic" in2="BackgroundImageFix" result="shape"/>
<feGaussianBlur stdDeviation="0.3" result="effect1_foregroundBlur_538_12612"/>
</filter>
<filter id="filter13_f_538_12612" x="49.0375" y="18.6432" width="7.87959" height="8.12568" filterUnits="userSpaceOnUse" color-interpolation-filters="sRGB">
<feFlood flood-opacity="0" result="BackgroundImageFix"/>
<feBlend mode="normal" in="SourceGraphic" in2="BackgroundImageFix" result="shape"/>
<feGaussianBlur stdDeviation="0.2" result="effect1_foregroundBlur_538_12612"/>
</filter>
<filter id="filter14_f_538_12612" x="18.9086" y="19.6275" width="5.03193" height="7.03596" filterUnits="userSpaceOnUse" color-interpolation-filters="sRGB">
<feFlood flood-opacity="0" result="BackgroundImageFix"/>
<feBlend mode="normal" in="SourceGraphic" in2="BackgroundImageFix" result="shape"/>
<feGaussianBlur stdDeviation="0.2" result="effect1_foregroundBlur_538_12612"/>
</filter>
<filter id="filter15_f_538_12612" x="26.1804" y="25.6813" width="7.60229" height="5.41064" filterUnits="userSpaceOnUse" color-interpolation-filters="sRGB">
<feFlood flood-opacity="0" result="BackgroundImageFix"/>
<feBlend mode="normal" in="SourceGraphic" in2="BackgroundImageFix" result="shape"/>
<feGaussianBlur stdDeviation="0.25" result="effect1_foregroundBlur_538_12612"/>
</filter>
<filter id="filter16_f_538_12612" x="42.6094" y="25.9373" width="10.6006" height="4.31665" filterUnits="userSpaceOnUse" color-interpolation-filters="sRGB">
<feFlood flood-opacity="0" result="BackgroundImageFix"/>
<feBlend mode="normal" in="SourceGraphic" in2="BackgroundImageFix" result="shape"/>
<feGaussianBlur stdDeviation="0.25" result="effect1_foregroundBlur_538_12612"/>
</filter>
<filter id="filter17_i_538_12612" x="77.3721" y="40.4751" width="62.9978" height="63.2478" filterUnits="userSpaceOnUse" color-interpolation-filters="sRGB">
<feFlood flood-opacity="0" result="BackgroundImageFix"/>
<feBlend mode="normal" in="SourceGraphic" in2="BackgroundImageFix" result="shape"/>
<feColorMatrix in="SourceAlpha" type="matrix" values="0 0 0 0 0 0 0 0 0 0 0 0 0 0 0 0 0 0 127 0" result="hardAlpha"/>
<feOffset dy="-0.25"/>
<feGaussianBlur stdDeviation="0.75"/>
<feComposite in2="hardAlpha" operator="arithmetic" k2="-1" k3="1"/>
<feColorMatrix type="matrix" values="0 0 0 0 0.509804 0 0 0 0 0.396078 0 0 0 0 0.631373 0 0 0 1 0"/>
<feBlend mode="normal" in2="shape" result="effect1_innerShadow_538_12612"/>
</filter>
<filter id="filter18_f_538_12612" x="101.737" y="42.6906" width="11.9861" height="11.986" filterUnits="userSpaceOnUse" color-interpolation-filters="sRGB">
<feFlood flood-opacity="0" result="BackgroundImageFix"/>
<feBlend mode="normal" in="SourceGraphic" in2="BackgroundImageFix" result="shape"/>
<feGaussianBlur stdDeviation="0.125" result="effect1_foregroundBlur_538_12612"/>
</filter>
<filter id="filter19_f_538_12612" x="77.5" y="69.6515" width="11.0587" height="17.1118" filterUnits="userSpaceOnUse" color-interpolation-filters="sRGB">
<feFlood flood-opacity="0" result="BackgroundImageFix"/>
<feBlend mode="normal" in="SourceGraphic" in2="BackgroundImageFix" result="shape"/>
<feGaussianBlur stdDeviation="0.15" result="effect1_foregroundBlur_538_12612"/>
</filter>
<filter id="filter20_f_538_12612" x="97.7701" y="85.4745" width="11.0751" height="10.6773" filterUnits="userSpaceOnUse" color-interpolation-filters="sRGB">
<feFlood flood-opacity="0" result="BackgroundImageFix"/>
<feBlend mode="normal" in="SourceGraphic" in2="BackgroundImageFix" result="shape"/>
<feGaussianBlur stdDeviation="0.15" result="effect1_foregroundBlur_538_12612"/>
</filter>
<filter id="filter21_f_538_12612" x="132.744" y="74.1515" width="7.30933" height="11.7344" filterUnits="userSpaceOnUse" color-interpolation-filters="sRGB">
<feFlood flood-opacity="0" result="BackgroundImageFix"/>
<feBlend mode="normal" in="SourceGraphic" in2="BackgroundImageFix" result="shape"/>
<feGaussianBlur stdDeviation="0.125" result="effect1_foregroundBlur_538_12612"/>
</filter>
<filter id="filter22_d_538_12612" x="88.6493" y="51.8916" width="9.75508" height="9.75496" filterUnits="userSpaceOnUse" color-interpolation-filters="sRGB">
<feFlood flood-opacity="0" result="BackgroundImageFix"/>
<feColorMatrix in="SourceAlpha" type="matrix" values="0 0 0 0 0 0 0 0 0 0 0 0 0 0 0 0 0 0 127 0" result="hardAlpha"/>
<feOffset dy="0.15"/>
<feGaussianBlur stdDeviation="0.2"/>
<feComposite in2="hardAlpha" operator="out"/>
<feColorMatrix type="matrix" values="0 0 0 0 0.188235 0 0 0 0 0.0862745 0 0 0 0 0.286275 0 0 0 1 0"/>
<feBlend mode="normal" in2="BackgroundImageFix" result="effect1_dropShadow_538_12612"/>
<feBlend mode="normal" in="SourceGraphic" in2="effect1_dropShadow_538_12612" result="shape"/>
</filter>
<filter id="filter23_d_538_12612" x="118.71" y="52.0416" width="9.55508" height="9.55496" filterUnits="userSpaceOnUse" color-interpolation-filters="sRGB">
<feFlood flood-opacity="0" result="BackgroundImageFix"/>
<feColorMatrix in="SourceAlpha" type="matrix" values="0 0 0 0 0 0 0 0 0 0 0 0 0 0 0 0 0 0 127 0" result="hardAlpha"/>
<feOffset dx="-0.1" dy="0.2"/>
<feGaussianBlur stdDeviation="0.15"/>
<feComposite in2="hardAlpha" operator="out"/>
<feColorMatrix type="matrix" values="0 0 0 0 0.188235 0 0 0 0 0.0862745 0 0 0 0 0.286275 0 0 0 1 0"/>
<feBlend mode="normal" in2="BackgroundImageFix" result="effect1_dropShadow_538_12612"/>
<feBlend mode="normal" in="SourceGraphic" in2="effect1_dropShadow_538_12612" result="shape"/>
</filter>
<filter id="filter24_d_538_12612" x="92.2064" y="58.5966" width="13.176" height="7.4604" filterUnits="userSpaceOnUse" color-interpolation-filters="sRGB">
<feFlood flood-opacity="0" result="BackgroundImageFix"/>
<feColorMatrix in="SourceAlpha" type="matrix" values="0 0 0 0 0 0 0 0 0 0 0 0 0 0 0 0 0 0 127 0" result="hardAlpha"/>
<feOffset dx="-0.2" dy="0.15"/>
<feGaussianBlur stdDeviation="0.2"/>
<feComposite in2="hardAlpha" operator="out"/>
<feColorMatrix type="matrix" values="0 0 0 0 0.188235 0 0 0 0 0.0862745 0 0 0 0 0.286275 0 0 0 1 0"/>
<feBlend mode="normal" in2="BackgroundImageFix" result="effect1_dropShadow_538_12612"/>
<feBlend mode="normal" in="SourceGraphic" in2="effect1_dropShadow_538_12612" result="shape"/>
</filter>
<filter id="filter25_d_538_12612" x="111.601" y="58.5966" width="13.176" height="7.4604" filterUnits="userSpaceOnUse" color-interpolation-filters="sRGB">
<feFlood flood-opacity="0" result="BackgroundImageFix"/>
<feColorMatrix in="SourceAlpha" type="matrix" values="0 0 0 0 0 0 0 0 0 0 0 0 0 0 0 0 0 0 127 0" result="hardAlpha"/>
<feOffset dx="-0.2" dy="0.15"/>
<feGaussianBlur stdDeviation="0.2"/>
<feComposite in2="hardAlpha" operator="out"/>
<feColorMatrix type="matrix" values="0 0 0 0 0.188235 0 0 0 0 0.0862745 0 0 0 0 0.286275 0 0 0 1 0"/>
<feBlend mode="normal" in2="BackgroundImageFix" result="effect1_dropShadow_538_12612"/>
<feBlend mode="normal" in="SourceGraphic" in2="effect1_dropShadow_538_12612" result="shape"/>
</filter>
<filter id="filter26_di_538_12612" x="95.4243" y="72.1115" width="25.8325" height="10.0094" filterUnits="userSpaceOnUse" color-interpolation-filters="sRGB">
<feFlood flood-opacity="0" result="BackgroundImageFix"/>
<feColorMatrix in="SourceAlpha" type="matrix" values="0 0 0 0 0 0 0 0 0 0 0 0 0 0 0 0 0 0 127 0" result="hardAlpha"/>
<feOffset dx="-0.25" dy="0.25"/>
<feGaussianBlur stdDeviation="0.625"/>
<feComposite in2="hardAlpha" operator="out"/>
<feColorMatrix type="matrix" values="0 0 0 0 0.223529 0 0 0 0 0.133333 0 0 0 0 0.309804 0 0 0 1 0"/>
<feBlend mode="normal" in2="BackgroundImageFix" result="effect1_dropShadow_538_12612"/>
<feBlend mode="normal" in="SourceGraphic" in2="effect1_dropShadow_538_12612" result="shape"/>
<feColorMatrix in="SourceAlpha" type="matrix" values="0 0 0 0 0 0 0 0 0 0 0 0 0 0 0 0 0 0 127 0" result="hardAlpha"/>
<feOffset dy="0.25"/>
<feGaussianBlur stdDeviation="0.125"/>
<feComposite in2="hardAlpha" operator="arithmetic" k2="-1" k3="1"/>
<feColorMatrix type="matrix" values="0 0 0 0 0.156863 0 0 0 0 0.101961 0 0 0 0 0.211765 0 0 0 1 0"/>
<feBlend mode="normal" in2="shape" result="effect2_innerShadow_538_12612"/>
</filter>
<filter id="filter27_f_538_12612" x="97.9158" y="74.1421" width="21.4906" height="5.32388" filterUnits="userSpaceOnUse" color-interpolation-filters="sRGB">
<feFlood flood-opacity="0" result="BackgroundImageFix"/>
<feBlend mode="normal" in="SourceGraphic" in2="BackgroundImageFix" result="shape"/>
<feGaussianBlur stdDeviation="0.15" result="effect1_foregroundBlur_538_12612"/>
</filter>
<filter id="filter28_f_538_12612" x="89.8096" y="53.3972" width="4.9375" height="6.92383" filterUnits="userSpaceOnUse" color-interpolation-filters="sRGB">
<feFlood flood-opacity="0" result="BackgroundImageFix"/>
<feBlend mode="normal" in="SourceGraphic" in2="BackgroundImageFix" result="shape"/>
<feGaussianBlur stdDeviation="0.125" result="effect1_foregroundBlur_538_12612"/>
</filter>
<filter id="filter29_f_538_12612" x="119.763" y="52.5865" width="7.85547" height="6.75012" filterUnits="userSpaceOnUse" color-interpolation-filters="sRGB">
<feFlood flood-opacity="0" result="BackgroundImageFix"/>
<feBlend mode="normal" in="SourceGraphic" in2="BackgroundImageFix" result="shape"/>
<feGaussianBlur stdDeviation="0.125" result="effect1_foregroundBlur_538_12612"/>
</filter>
<filter id="filter30_f_538_12612" x="93.6173" y="59.6332" width="11.1735" height="4.71992" filterUnits="userSpaceOnUse" color-interpolation-filters="sRGB">
<feFlood flood-opacity="0" result="BackgroundImageFix"/>
<feBlend mode="normal" in="SourceGraphic" in2="BackgroundImageFix" result="shape"/>
<feGaussianBlur stdDeviation="0.2" result="effect1_foregroundBlur_538_12612"/>
</filter>
<filter id="filter31_f_538_12612" x="112.648" y="59.6332" width="11.1735" height="4.71992" filterUnits="userSpaceOnUse" color-interpolation-filters="sRGB">
<feFlood flood-opacity="0" result="BackgroundImageFix"/>
<feBlend mode="normal" in="SourceGraphic" in2="BackgroundImageFix" result="shape"/>
<feGaussianBlur stdDeviation="0.2" result="effect1_foregroundBlur_538_12612"/>
</filter>
<linearGradient id="paint0_linear_538_12612" x1="56.022" y1="14.9632" x2="21.4846" y2="59.0281" gradientUnits="userSpaceOnUse">
<stop stop-color="#FC8B23"/>
<stop offset="1" stop-color="#E67639"/>
</linearGradient>
<radialGradient id="paint1_radial_538_12612" cx="0" cy="0" r="1" gradientUnits="userSpaceOnUse" gradientTransform="translate(43.0636 7.24665) rotate(138.155) scale(8.50194 7.50134)">
<stop offset="0.300161" stop-color="#FFA13A"/>
<stop offset="1" stop-color="#FFA13A" stop-opacity="0"/>
</radialGradient>
<radialGradient id="paint2_radial_538_12612" cx="0" cy="0" r="1" gradientUnits="userSpaceOnUse" gradientTransform="translate(20.9435 4.5627) rotate(67.8105) scale(13.5161 11.9254)">
<stop offset="0.300161" stop-color="#FF942A"/>
<stop offset="1" stop-color="#FF942A" stop-opacity="0"/>
</radialGradient>
<radialGradient id="paint3_radial_538_12612" cx="0" cy="0" r="1" gradientUnits="userSpaceOnUse" gradientTransform="translate(57.2432 17.1723) rotate(-164.745) scale(5.38905 7.46184)">
<stop offset="0.300161" stop-color="#FFA13D"/>
<stop offset="1" stop-color="#FFA13D" stop-opacity="0"/>
</radialGradient>
<radialGradient id="paint4_radial_538_12612" cx="0" cy="0" r="1" gradientUnits="userSpaceOnUse" gradientTransform="translate(68.1141 25.0183) rotate(154.195) scale(9.55504 7.05709)">
<stop offset="0.300161" stop-color="#FFA13D"/>
<stop offset="1" stop-color="#FFA13D" stop-opacity="0"/>
</radialGradient>
<radialGradient id="paint5_radial_538_12612" cx="0" cy="0" r="1" gradientUnits="userSpaceOnUse" gradientTransform="translate(70.1938 41.183) rotate(-173.379) scale(10.6585 6.00641)">
<stop offset="0.300161" stop-color="#FFA13D"/>
<stop offset="1" stop-color="#FFA13D" stop-opacity="0"/>
</radialGradient>
<radialGradient id="paint6_radial_538_12612" cx="0" cy="0" r="1" gradientUnits="userSpaceOnUse" gradientTransform="translate(60.6462 53.5665) rotate(-43.9639) scale(9.66809 9.31407)">
<stop stop-color="#E0762A"/>
<stop offset="1" stop-color="#E0762A" stop-opacity="0"/>
</radialGradient>
<radialGradient id="paint7_radial_538_12612" cx="0" cy="0" r="1" gradientUnits="userSpaceOnUse" gradientTransform="translate(15.8389 51.2977) rotate(-127.747) scale(7.41204 7.14063)">
<stop stop-color="#E0762A"/>
<stop offset="1" stop-color="#E0762A" stop-opacity="0"/>
</radialGradient>
<radialGradient id="paint8_radial_538_12612" cx="0" cy="0" r="1" gradientUnits="userSpaceOnUse" gradientTransform="translate(5.72418 26.2472) rotate(25.2777) scale(7.52688 9.09732)">
<stop stop-color="#F0851D"/>
<stop offset="1" stop-color="#F0851D" stop-opacity="0"/>
</radialGradient>
<radialGradient id="paint9_radial_538_12612" cx="0" cy="0" r="1" gradientUnits="userSpaceOnUse" gradientTransform="translate(50.6535 64.3011) rotate(-142.487) scale(8.77555 8.27897)">
<stop offset="0.336586" stop-color="#E3745B"/>
<stop offset="1" stop-color="#E3745B" stop-opacity="0"/>
</radialGradient>
<radialGradient id="paint10_radial_538_12612" cx="0" cy="0" r="1" gradientUnits="userSpaceOnUse" gradientTransform="translate(50.9658 21.9389) rotate(130.262) scale(39.3577 40.1059)">
<stop offset="0.17178" stop-color="#FFD13D"/>
<stop offset="1" stop-color="#DCA21C"/>
</radialGradient>
<radialGradient id="paint11_radial_538_12612" cx="0" cy="0" r="1" gradientUnits="userSpaceOnUse" gradientTransform="translate(22.3653 37.2946) scale(7.22438)">
<stop offset="0.25" stop-color="#ED501F"/>
<stop offset="0.89541" stop-color="#F18A42" stop-opacity="0"/>
</radialGradient>
<radialGradient id="paint12_radial_538_12612" cx="0" cy="0" r="1" gradientUnits="userSpaceOnUse" gradientTransform="translate(52.1106 37.2946) scale(7.22438)">
<stop offset="0.130208" stop-color="#FB6738"/>
<stop offset="0.89541" stop-color="#F18A42" stop-opacity="0"/>
</radialGradient>
<linearGradient id="paint13_linear_538_12612" x1="26.1583" y1="43.1183" x2="49.4856" y2="43.1183" gradientUnits="userSpaceOnUse">
<stop stop-color="#31243C"/>
<stop offset="1" stop-color="#3F2950"/>
</linearGradient>
<linearGradient id="paint14_linear_538_12612" x1="49.4887" y1="40.3018" x2="48.1259" y2="41.5674" gradientUnits="userSpaceOnUse">
<stop stop-color="#665C6D"/>
<stop offset="1" stop-color="#665C6D" stop-opacity="0"/>
</linearGradient>
<radialGradient id="paint15_radial_538_12612" cx="0" cy="0" r="1" gradientUnits="userSpaceOnUse" gradientTransform="translate(27.2362 19.2431) rotate(127.543) scale(2.52733)">
<stop stop-color="#59525C"/>
<stop offset="1" stop-color="#59525C" stop-opacity="0"/>
</radialGradient>
<linearGradient id="paint16_linear_538_12612" x1="22.0294" y1="28.4374" x2="34.4147" y2="28.4374" gradientUnits="userSpaceOnUse">
<stop stop-color="#2E2931"/>
<stop offset="1" stop-color="#362A3F"/>
</linearGradient>
<linearGradient id="paint17_linear_538_12612" x1="27.3704" y1="39.8741" x2="37.7836" y2="45.1363" gradientUnits="userSpaceOnUse">
<stop stop-color="#4E4753"/>
<stop offset="1" stop-color="#4E4753" stop-opacity="0"/>
</linearGradient>
<linearGradient id="paint18_linear_538_12612" x1="49.0243" y1="39.5293" x2="36.1975" y2="45.8737" gradientUnits="userSpaceOnUse">
<stop offset="0.0897352" stop-color="#5E5468"/>
<stop offset="1" stop-color="#5E5468" stop-opacity="0"/>
</linearGradient>
<linearGradient id="paint19_linear_538_12612" x1="48.864" y1="18.9619" x2="53.9265" y2="22.1963" gradientUnits="userSpaceOnUse">
<stop stop-color="#60556A"/>
<stop offset="1" stop-color="#60556A" stop-opacity="0"/>
</linearGradient>
<linearGradient id="paint20_linear_538_12612" x1="56.7039" y1="25.2549" x2="52.3445" y2="17.9424" gradientUnits="userSpaceOnUse">
<stop stop-color="#5D4F69"/>
<stop offset="1" stop-color="#5D4F69" stop-opacity="0"/>
</linearGradient>
<linearGradient id="paint21_linear_538_12612" x1="20.0359" y1="26.8369" x2="20.2602" y2="20.1315" gradientUnits="userSpaceOnUse">
<stop stop-color="#524D53"/>
<stop offset="1" stop-color="#524D53" stop-opacity="0"/>
</linearGradient>
<linearGradient id="paint22_linear_538_12612" x1="31.4443" y1="30.3419" x2="26.0301" y2="29.5093" gradientUnits="userSpaceOnUse">
<stop stop-color="#524D53"/>
<stop offset="1" stop-color="#5C5463" stop-opacity="0"/>
</linearGradient>
<linearGradient id="paint23_linear_538_12612" x1="49.8771" y1="29.9589" x2="41.8939" y2="28.8089" gradientUnits="userSpaceOnUse">
<stop stop-color="#61556C"/>
<stop offset="1" stop-color="#554A5F"/>
</linearGradient>
<radialGradient id="paint24_radial_538_12612" cx="0" cy="0" r="1" gradientUnits="userSpaceOnUse" gradientTransform="translate(121.247 62.5983) rotate(139.682) scale(46.2932 48.1036)">
<stop stop-color="#A27ACE"/>
<stop offset="1" stop-color="#60348C"/>
</radialGradient>
<radialGradient id="paint25_radial_538_12612" cx="0" cy="0" r="1" gradientUnits="userSpaceOnUse" gradientTransform="translate(122.372 72.224) rotate(171.533) scale(43.5054 69.8673)">
<stop offset="0.44431" stop-color="#544269" stop-opacity="0"/>
<stop offset="1" stop-color="#544269"/>
</radialGradient>
<radialGradient id="paint26_radial_538_12612" cx="0" cy="0" r="1" gradientUnits="userSpaceOnUse" gradientTransform="translate(78.9391 83.957) rotate(-14.5804) scale(28.4181)">
<stop stop-color="#453C50"/>
<stop offset="1" stop-color="#453C50" stop-opacity="0"/>
</radialGradient>
<radialGradient id="paint27_radial_538_12612" cx="0" cy="0" r="1" gradientUnits="userSpaceOnUse" gradientTransform="translate(93.7073 72.2016) scale(6.65078)">
<stop stop-color="#D8585D"/>
<stop offset="1" stop-color="#D8585D" stop-opacity="0"/>
</radialGradient>
<radialGradient id="paint28_radial_538_12612" cx="0" cy="0" r="1" gradientUnits="userSpaceOnUse" gradientTransform="translate(123.471 72.2016) scale(6.65078)">
<stop offset="0.234375" stop-color="#E35387"/>
<stop offset="1" stop-color="#E35387" stop-opacity="0"/>
</radialGradient>
<linearGradient id="paint29_linear_538_12612" x1="113.348" y1="47.9734" x2="103.106" y2="50.6453" gradientUnits="userSpaceOnUse">
<stop stop-color="#6D4993"/>
<stop offset="1" stop-color="#8D61B9"/>
</linearGradient>
<linearGradient id="paint30_linear_538_12612" x1="102.112" y1="48.6835" x2="112.317" y2="48.6835" gradientUnits="userSpaceOnUse">
<stop stop-color="#996BBF"/>
<stop offset="1" stop-color="#996BBF" stop-opacity="0"/>
<stop offset="1" stop-color="#7B569B"/>
</linearGradient>
<radialGradient id="paint31_radial_538_12612" cx="0" cy="0" r="1" gradientUnits="userSpaceOnUse" gradientTransform="translate(104.746 48.6835) scale(9.00348 8.57939)">
<stop offset="0.680851" stop-color="#64487E" stop-opacity="0"/>
<stop offset="1" stop-color="#64487E"/>
</radialGradient>
<radialGradient id="paint32_radial_538_12612" cx="0" cy="0" r="1" gradientUnits="userSpaceOnUse" gradientTransform="translate(108.999 48.6835) rotate(-180) scale(7.19164 7.16515)">
<stop offset="0.776385" stop-color="#A87ACF" stop-opacity="0"/>
<stop offset="1" stop-color="#A87ACF"/>
</radialGradient>
<linearGradient id="paint33_linear_538_12612" x1="86.0204" y1="82.3562" x2="78.8485" y2="68.5046" gradientUnits="userSpaceOnUse">
<stop stop-color="#3E3744"/>
<stop offset="1" stop-color="#504163"/>
</linearGradient>
<radialGradient id="paint34_radial_538_12612" cx="0" cy="0" r="1" gradientUnits="userSpaceOnUse" gradientTransform="translate(78.5674 78.9812) rotate(-22.4794) scale(8.82695 9.43408)">
<stop stop-color="#524262"/>
<stop offset="1" stop-color="#4A395D"/>
</radialGradient>
<radialGradient id="paint35_radial_538_12612" cx="0" cy="0" r="1" gradientUnits="userSpaceOnUse" gradientTransform="translate(84.5439 77.7859) rotate(168.69) scale(6.81197 19.4017)">
<stop offset="0.720648" stop-color="#6A6373" stop-opacity="0"/>
<stop offset="1" stop-color="#6A6373"/>
</radialGradient>
<radialGradient id="paint36_radial_538_12612" cx="0" cy="0" r="1" gradientUnits="userSpaceOnUse" gradientTransform="translate(84.5439 77.7859) rotate(168.257) scale(6.60704 18.818)">
<stop offset="0.929824" stop-color="#5B5167" stop-opacity="0"/>
<stop offset="1" stop-color="#5B5167"/>
</radialGradient>
<radialGradient id="paint37_radial_538_12612" cx="0" cy="0" r="1" gradientUnits="userSpaceOnUse" gradientTransform="translate(79.833 78.9109) rotate(-75.2564) scale(8.97924 8.85631)">
<stop offset="0.933787" stop-color="#624C7A" stop-opacity="0"/>
<stop offset="1" stop-color="#624C7A"/>
</radialGradient>
<radialGradient id="paint38_radial_538_12612" cx="0" cy="0" r="1" gradientUnits="userSpaceOnUse" gradientTransform="translate(81.2178 75.3172) rotate(84.2612) scale(11.1811 8.96807)">
<stop offset="0.87614" stop-color="#57545C" stop-opacity="0"/>
<stop offset="1" stop-color="#57545C"/>
</radialGradient>
<linearGradient id="paint39_linear_538_12612" x1="105.638" y1="86.7155" x2="101.067" y2="94.1335" gradientUnits="userSpaceOnUse">
<stop stop-color="#563775"/>
<stop offset="1" stop-color="#52336B"/>
</linearGradient>
<linearGradient id="paint40_linear_538_12612" x1="98.5361" y1="87.7702" x2="108.872" y2="93.1843" gradientUnits="userSpaceOnUse">
<stop stop-color="#583676"/>
<stop offset="1" stop-color="#5E407C"/>
</linearGradient>
<radialGradient id="paint41_radial_538_12612" cx="0" cy="0" r="1" gradientUnits="userSpaceOnUse" gradientTransform="translate(103.308 88.3625) rotate(86.2796) scale(7.74817 6.10489)">
<stop offset="0.821528" stop-color="#674F7D" stop-opacity="0"/>
<stop offset="1" stop-color="#674F7D"/>
</radialGradient>
<radialGradient id="paint42_radial_538_12612" cx="0" cy="0" r="1" gradientUnits="userSpaceOnUse" gradientTransform="translate(103.308 92.0648) rotate(-119.743) scale(6.82036 5.91662)">
<stop offset="0.787914" stop-color="#4F2D6E" stop-opacity="0"/>
<stop offset="1" stop-color="#4F2D6E"/>
</radialGradient>
<linearGradient id="paint43_linear_538_12612" x1="136.707" y1="74.5515" x2="136.707" y2="85.6183" gradientUnits="userSpaceOnUse">
<stop stop-color="#8059AC"/>
<stop offset="1" stop-color="#9169BE"/>
</linearGradient>
<radialGradient id="paint44_radial_538_12612" cx="0" cy="0" r="1" gradientUnits="userSpaceOnUse" gradientTransform="translate(133.692 78.2781) rotate(22.9321) scale(5.95502 3.83404)">
<stop stop-color="#9D6BC8"/>
<stop offset="1" stop-color="#9C77BF"/>
</radialGradient>
<radialGradient id="paint45_radial_538_12612" cx="0" cy="0" r="1" gradientUnits="userSpaceOnUse" gradientTransform="translate(134.009 78.5242) rotate(13.1575) scale(5.56002 14.198)">
<stop offset="0.87414" stop-color="#A385C1" stop-opacity="0"/>
<stop offset="1" stop-color="#A385C1"/>
</radialGradient>
<radialGradient id="paint46_radial_538_12612" cx="0" cy="0" r="1" gradientUnits="userSpaceOnUse" gradientTransform="translate(133.886 78.3484) rotate(14.5913) scale(5.72165 12.8678)">
<stop offset="0.949924" stop-color="#A385C1" stop-opacity="0"/>
<stop offset="1" stop-color="#9A72BF"/>
</radialGradient>
<radialGradient id="paint47_radial_538_12612" cx="0" cy="0" r="1" gradientUnits="userSpaceOnUse" gradientTransform="translate(139.071 79.1218) rotate(109.614) scale(6.75524 6.16296)">
<stop offset="0.899694" stop-color="#AF8DCF" stop-opacity="0"/>
<stop offset="1" stop-color="#AF8DCF"/>
</radialGradient>
<radialGradient id="paint48_radial_538_12612" cx="0" cy="0" r="1" gradientUnits="userSpaceOnUse" gradientTransform="translate(138.825 81.4773) rotate(-104.248) scale(6.92794 6.60618)">
<stop offset="0.902487" stop-color="#7F59A4" stop-opacity="0"/>
<stop offset="1" stop-color="#7F59A4"/>
</radialGradient>
<linearGradient id="paint49_linear_538_12612" x1="96.953" y1="51.7593" x2="88.649" y2="60.0632" gradientUnits="userSpaceOnUse">
<stop stop-color="#28212F"/>
<stop offset="1" stop-color="#231F26"/>
</linearGradient>
<radialGradient id="paint50_radial_538_12612" cx="0" cy="0" r="1" gradientUnits="userSpaceOnUse" gradientTransform="translate(97.7386 52.9121) rotate(158.703) scale(1.89312 1.50317)">
<stop offset="0.108978" stop-color="#48424F"/>
<stop offset="1" stop-color="#48424F" stop-opacity="0"/>
</radialGradient>
<linearGradient id="paint51_linear_538_12612" x1="127.013" y1="51.7593" x2="118.709" y2="60.0632" gradientUnits="userSpaceOnUse">
<stop stop-color="#28212F"/>
<stop offset="1" stop-color="#231F26"/>
</linearGradient>
<radialGradient id="paint52_radial_538_12612" cx="0" cy="0" r="1" gradientUnits="userSpaceOnUse" gradientTransform="translate(128.065 61.0966) rotate(-122.305) scale(3.54727 2.81658)">
<stop offset="0.108978" stop-color="#48424F"/>
<stop offset="1" stop-color="#48424F" stop-opacity="0"/>
</radialGradient>
<linearGradient id="paint53_linear_538_12612" x1="103.729" y1="58.5622" x2="98.5745" y2="68.1404" gradientUnits="userSpaceOnUse">
<stop stop-color="#28212F"/>
<stop offset="1" stop-color="#231F26"/>
</linearGradient>
<radialGradient id="paint54_radial_538_12612" cx="0" cy="0" r="1" gradientUnits="userSpaceOnUse" gradientTransform="translate(104.815 59.4196) rotate(168.151) scale(2.49071 1.17439)">
<stop offset="0.108978" stop-color="#48424F"/>
<stop offset="1" stop-color="#48424F" stop-opacity="0"/>
</radialGradient>
<linearGradient id="paint55_linear_538_12612" x1="123.124" y1="58.5622" x2="117.97" y2="68.1404" gradientUnits="userSpaceOnUse">
<stop stop-color="#28212F"/>
<stop offset="1" stop-color="#231F26"/>
</linearGradient>
<radialGradient id="paint56_radial_538_12612" cx="0" cy="0" r="1" gradientUnits="userSpaceOnUse" gradientTransform="translate(124.21 59.4196) rotate(168.151) scale(2.49071 1.17439)">
<stop offset="0.108978" stop-color="#48424F"/>
<stop offset="1" stop-color="#48424F" stop-opacity="0"/>
</radialGradient>
<linearGradient id="paint57_linear_538_12612" x1="97.2001" y1="73.1115" x2="99.0985" y2="74.5515" gradientUnits="userSpaceOnUse">
<stop stop-color="#211928"/>
<stop offset="1" stop-color="#211928" stop-opacity="0"/>
</linearGradient>
<linearGradient id="paint58_linear_538_12612" x1="119.63" y1="73.4968" x2="118.294" y2="74.9734" gradientUnits="userSpaceOnUse">
<stop stop-color="#584B64"/>
<stop offset="1" stop-color="#584B64" stop-opacity="0"/>
</linearGradient>
<linearGradient id="paint59_linear_538_12612" x1="119.349" y1="74.2703" x2="116.031" y2="81.9044" gradientUnits="userSpaceOnUse">
<stop stop-color="#4C3C59"/>
<stop offset="1" stop-color="#3D3645"/>
</linearGradient>
<linearGradient id="paint60_linear_538_12612" x1="93.7652" y1="53.2933" x2="91.6602" y2="60.3595" gradientUnits="userSpaceOnUse">
<stop stop-color="#3F3A44" stop-opacity="0"/>
<stop offset="1" stop-color="#3F3A44"/>
</linearGradient>
<linearGradient id="paint61_linear_538_12612" x1="127.575" y1="59.9968" x2="118.11" y2="57.8713" gradientUnits="userSpaceOnUse">
<stop stop-color="#3F3A44"/>
<stop offset="0.37934" stop-color="#3F3A44" stop-opacity="0"/>
<stop offset="0.739562" stop-color="#3F3A44"/>
</linearGradient>
<linearGradient id="paint62_linear_538_12612" x1="90.8721" y1="62.2041" x2="93.5638" y2="55.9143" gradientUnits="userSpaceOnUse">
<stop stop-color="#3F3A44" stop-opacity="0"/>
<stop offset="1" stop-color="#3F3A44"/>
</linearGradient>
<linearGradient id="paint63_linear_538_12612" x1="109.903" y1="62.2041" x2="112.595" y2="55.9143" gradientUnits="userSpaceOnUse">
<stop stop-color="#3F3A44" stop-opacity="0"/>
<stop offset="1" stop-color="#3F3A44"/>
</linearGradient>
</defs>
</svg>
