<svg width="120" height="22" viewBox="0 0 120 22" fill="none" xmlns="http://www.w3.org/2000/svg">
<path d="M5.45617 17.5835C4.16352 17.5835 3.08131 17.343 2.20952 16.862C1.35277 16.366 0.616261 15.7121 0 14.9005L1.01458 14.0663C1.57072 14.8028 2.19449 15.374 2.88591 15.7798C3.59235 16.1856 4.46414 16.3885 5.50126 16.3885C6.71875 16.3885 7.65066 16.1029 8.29698 15.5318C8.95834 14.9456 9.28901 14.1339 9.28901 13.0968C9.28901 12.1348 9.01095 11.4284 8.45481 10.9775C7.89867 10.5265 7.11707 10.1959 6.11001 9.98542L4.71215 9.69232C3.20907 9.39171 2.11934 8.88818 1.44295 8.18173C0.766569 7.47528 0.428377 6.57344 0.428377 5.47619C0.428377 4.78478 0.548623 4.18355 0.789115 3.6725C1.02961 3.14642 1.3678 2.71053 1.80369 2.36482C2.25462 2.01911 2.78821 1.75608 3.40447 1.57571C4.03576 1.39534 4.72718 1.30515 5.47872 1.30515C6.65111 1.30515 7.64315 1.51558 8.45481 1.93645C9.26647 2.35731 9.93534 2.95102 10.4614 3.71759L9.44684 4.46161C9.01095 3.83032 8.46232 3.34934 7.80097 3.01866C7.15465 2.67295 6.35802 2.5001 5.41108 2.5001C4.28377 2.5001 3.38944 2.74811 2.72808 3.24412C2.08176 3.72511 1.7586 4.4541 1.7586 5.4311C1.7586 6.36301 2.0517 7.04691 2.6379 7.4828C3.2241 7.91869 4.0057 8.23434 4.9827 8.42974L6.38056 8.72284C7.94376 9.06855 9.04101 9.60214 9.6723 10.3236C10.3036 11.0451 10.6192 11.9469 10.6192 13.0292C10.6192 14.4721 10.1608 15.5919 9.24392 16.3885C8.32705 17.1852 7.06446 17.5835 5.45617 17.5835Z" fill="white"/>
<path d="M18.0901 17.5835C17.3235 17.5835 16.6246 17.4482 15.9933 17.1776C15.3771 16.9071 14.8435 16.5163 14.3925 16.0052C13.9567 15.4792 13.6185 14.8404 13.378 14.0888C13.1525 13.3373 13.0398 12.488 13.0398 11.5411C13.0398 10.5942 13.1525 9.75245 13.378 9.01594C13.6185 8.2644 13.9567 7.63311 14.3925 7.12206C14.8435 6.59598 15.3771 6.19767 15.9933 5.92712C16.6096 5.64153 17.301 5.49874 18.0676 5.49874C18.8041 5.49874 19.4729 5.64153 20.0742 5.92712C20.6754 6.19767 21.1865 6.58095 21.6073 7.07697C22.0282 7.57298 22.3513 8.17421 22.5768 8.88066C22.8173 9.57208 22.9375 10.3386 22.9375 11.1804V11.7891H14.3925V12.3528C14.3925 12.954 14.4752 13.5101 14.6406 14.0212C14.8209 14.5172 15.0689 14.9456 15.3846 15.3063C15.7153 15.6671 16.1136 15.9526 16.5795 16.1631C17.0455 16.3585 17.5716 16.4562 18.1578 16.4562C19.8412 16.4562 21.0061 15.6821 21.6524 14.1339L22.5993 14.7652C22.2386 15.622 21.6674 16.3059 20.8858 16.8169C20.1193 17.328 19.1874 17.5835 18.0901 17.5835ZM18.0676 6.58095C17.5114 6.58095 17.0079 6.68617 16.557 6.8966C16.1061 7.092 15.7153 7.37007 15.3846 7.73081C15.0689 8.09155 14.8209 8.52744 14.6406 9.03848C14.4752 9.5345 14.3925 10.0831 14.3925 10.6844V10.7971H21.5397V10.6167C21.5397 10.0155 21.457 9.46686 21.2917 8.97085C21.1263 8.4598 20.8858 8.03142 20.5702 7.68572C20.2696 7.34001 19.9013 7.06945 19.4654 6.87405C19.0446 6.67865 18.5786 6.58095 18.0676 6.58095Z" fill="white"/>
<path d="M26.206 17.3129V5.76929H27.4912V7.59553H27.5588C27.8143 6.9943 28.2126 6.49828 28.7537 6.10748C29.2948 5.70165 30.0314 5.49874 30.9633 5.49874C32.1958 5.49874 33.1502 5.88202 33.8266 6.64859C34.518 7.40013 34.8637 8.48235 34.8637 9.89524V17.3129H33.5786V10.1207C33.5786 8.9483 33.3231 8.07651 32.812 7.50535C32.316 6.93418 31.587 6.64859 30.6251 6.64859C30.2192 6.64859 29.8284 6.7012 29.4527 6.80641C29.0769 6.91163 28.7387 7.06945 28.4381 7.27988C28.1525 7.49031 27.9195 7.76087 27.7392 8.09155C27.5738 8.40719 27.4912 8.77545 27.4912 9.19631V17.3129H26.206Z" fill="white"/>
<path d="M40.8943 17.3129C40.4284 17.3129 40.0751 17.1852 39.8346 16.9296C39.5942 16.6741 39.4739 16.3284 39.4739 15.8925V6.8966H37.4673V5.76929H38.775C39.0906 5.76929 39.3011 5.70917 39.4063 5.58892C39.5265 5.45365 39.5866 5.22067 39.5866 4.88999V2.54519H40.759V5.76929H43.3744V6.8966H40.759V16.1856H43.194V17.3129H40.8943Z" fill="white"/>
<path d="M46.4623 17.3129V5.76929H47.7475V7.84354H47.8377C48.0631 7.30243 48.4464 6.82145 48.9875 6.40058C49.5286 5.97972 50.2952 5.76929 51.2872 5.76929H52.0538V7.03188H51.0392C50.0772 7.03188 49.2881 7.24231 48.6719 7.66317C48.0556 8.08403 47.7475 8.67023 47.7475 9.42177V17.3129H46.4623Z" fill="white"/>
<path d="M61.7282 5.76929H63.0359L57.6924 20.5596C57.5121 21.0406 57.2941 21.3712 57.0386 21.5516C56.7831 21.732 56.3622 21.8222 55.776 21.8222H54.4683V20.6948H56.4073L57.5121 17.6511L53.2283 5.76929H54.5811L58.1208 15.9376H58.211L61.7282 5.76929Z" fill="white"/>
<path d="M67.671 20.4243V0.177845H71.0079V1.19242H68.7983V19.4097H71.0079V20.4243H67.671Z" fill="white"/>
<path d="M80.7528 4.21361V17.3129H77.7767V4.21361H73.3126V1.57571H85.217V4.21361H80.7528Z" fill="white"/>
<path d="M95.9185 17.3129L94.6559 13.2997H89.0644L87.8244 17.3129H84.8032L90.079 1.57571H93.7766L99.0073 17.3129H95.9185ZM91.9053 4.28125H91.7925L89.7859 10.752H93.9344L91.9053 4.28125Z" fill="white"/>
<path d="M110.765 14.8779H110.675C110.54 15.6445 110.111 16.2908 109.39 16.8169C108.684 17.328 107.737 17.5835 106.549 17.5835C105.617 17.5835 104.753 17.4106 103.956 17.0649C103.175 16.7192 102.491 16.2082 101.905 15.5318C101.333 14.8404 100.883 13.9911 100.552 12.9841C100.221 11.977 100.056 10.8121 100.056 9.48941C100.056 8.1667 100.221 7.00181 100.552 5.99475C100.898 4.97266 101.379 4.11591 101.995 3.42449C102.611 2.73308 103.348 2.207 104.204 1.84626C105.061 1.48552 106.016 1.30515 107.068 1.30515C108.481 1.30515 109.683 1.61328 110.675 2.22955C111.667 2.84581 112.449 3.73262 113.02 4.88999L110.607 6.3104C110.322 5.63401 109.894 5.07036 109.322 4.61944C108.766 4.16851 108.015 3.94305 107.068 3.94305C105.895 3.94305 104.956 4.30379 104.249 5.02527C103.558 5.73171 103.212 6.78387 103.212 8.18173V10.7069C103.212 12.0897 103.566 13.1419 104.272 13.8634C104.978 14.5848 105.925 14.9456 107.113 14.9456C107.579 14.9456 108.015 14.893 108.42 14.7878C108.826 14.6675 109.18 14.4947 109.48 14.2692C109.781 14.0437 110.021 13.7657 110.202 13.435C110.382 13.1043 110.472 12.7135 110.472 12.2626V11.248H107.383V8.74538H113.336V17.3129H110.765V14.8779Z" fill="white"/>
<path d="M120 0.177845V20.4243H116.663V19.4097H118.873V1.19242H116.663V0.177845H120Z" fill="white"/>
</svg>
