<svg width="60" height="61" viewBox="0 0 60 61" fill="none" xmlns="http://www.w3.org/2000/svg">
<path d="M30 0.5C24.0666 0.5 18.2664 2.25947 13.3329 5.55591C8.39943 8.85235 4.55426 13.5377 2.28363 19.0195C0.0129985 24.5013 -0.581102 30.5333 0.576455 36.3527C1.73401 42.1721 4.59123 47.5176 8.78681 51.7132C12.9824 55.9088 18.3279 58.766 24.1473 59.9236C29.9667 61.0811 35.9987 60.487 41.4805 58.2164C46.9623 55.9458 51.6477 52.1006 54.9441 47.1671C58.2405 42.2336 60 36.4334 60 30.5C60 26.5603 59.224 22.6593 57.7164 19.0195C56.2088 15.3797 53.999 12.0726 51.2132 9.2868C48.4275 6.50104 45.1203 4.29126 41.4805 2.78361C37.8408 1.27597 33.9397 0.5 30 0.5ZM24 44V17L42 30.5L24 44Z" fill="#0F62FE"/>
</svg>
