<svg width="25" height="25" viewBox="0 0 25 25" fill="none" xmlns="http://www.w3.org/2000/svg">
<path fill-rule="evenodd" clip-rule="evenodd" d="M11.1665 2.50049C9.81111 2.5006 8.47538 2.82485 7.27077 3.44618C6.06616 4.06751 5.02761 4.96791 4.24175 6.07224C3.45589 7.17658 2.94552 8.45284 2.75322 9.79453C2.56092 11.1362 2.69226 12.5045 3.13629 13.7851C3.58032 15.0657 4.32416 16.2215 5.30575 17.1562C6.28734 18.0909 7.47822 18.7773 8.77903 19.1581C10.0798 19.5389 11.4529 19.6031 12.7835 19.3454C14.1142 19.0877 15.364 18.5155 16.4285 17.6765L20.0805 21.3285C20.2691 21.5106 20.5217 21.6114 20.7839 21.6092C21.0461 21.6069 21.2969 21.5017 21.4823 21.3163C21.6677 21.1309 21.7729 20.8801 21.7752 20.6179C21.7775 20.3557 21.6767 20.1031 21.4945 19.9145L17.8425 16.2625C18.8305 15.0091 19.4457 13.5029 19.6176 11.9162C19.7896 10.3295 19.5113 8.72651 18.8147 7.29058C18.1182 5.85465 17.0314 4.64384 15.6788 3.79672C14.3262 2.94959 12.7625 2.50038 11.1665 2.50049ZM4.66651 11.0005C4.66651 9.27658 5.35133 7.62328 6.57032 6.40429C7.78931 5.18531 9.44261 4.50049 11.1665 4.50049C12.8904 4.50049 14.5437 5.18531 15.7627 6.40429C16.9817 7.62328 17.6665 9.27658 17.6665 11.0005C17.6665 12.7244 16.9817 14.3777 15.7627 15.5967C14.5437 16.8157 12.8904 17.5005 11.1665 17.5005C9.44261 17.5005 7.78931 16.8157 6.57032 15.5967C5.35133 14.3777 4.66651 12.7244 4.66651 11.0005Z" fill="#78A9FF"/>
</svg>
